<?xml version="1.0" encoding="UTF-8"?>
<svg version="1.1" xmlns="http://www.w3.org/2000/svg" width="512" height="512">
<path d="M0 0 C2.70629883 1.23999023 2.70629883 1.23999023 5.45703125 2.80859375 C6.47788818 3.38536865 7.49874512 3.96214355 8.55053711 4.55639648 C9.62698486 5.17716064 10.70343262 5.7979248 11.8125 6.4375 C12.93470947 7.0756665 14.05691895 7.71383301 15.21313477 8.37133789 C22.66316397 12.61971932 30.07053784 16.93895575 37.4453125 21.31640625 C42.08359673 24.06200873 46.75690584 26.74565794 51.43017578 29.43115234 C60.83894034 34.83844146 70.23406318 40.26752346 79.5625 45.8125 C80.82960815 46.55862549 80.82960815 46.55862549 82.12231445 47.31982422 C82.88761475 47.77760254 83.65291504 48.23538086 84.44140625 48.70703125 C85.44216187 49.30221558 85.44216187 49.30221558 86.46313477 49.90942383 C88 51 88 51 89 53 C89.09202122 55.24664431 89.11749805 57.49610433 89.11352539 59.74462891 C89.11367142 60.43742447 89.11381744 61.13022003 89.1139679 61.8440094 C89.11327018 64.13822541 89.10548442 66.43236064 89.09765625 68.7265625 C89.09579157 70.31554113 89.0943679 71.90452034 89.09336853 73.49349976 C89.08954731 77.67909325 89.07972039 81.86465213 89.06866455 86.05023193 C89.05844194 90.31994153 89.05386909 94.5896567 89.04882812 98.859375 C89.03809778 107.23959923 89.02102608 115.61979531 89 124 C89.75667969 124.28883057 90.51335937 124.57766113 91.29296875 124.87524414 C94.80019993 126.33247845 97.85862668 128.33133351 101 130.4375 C101.65645508 130.87707031 102.31291016 131.31664062 102.98925781 131.76953125 C109.74467133 136.37949055 115.8983388 141.56870068 122 147 C122.99257813 147.87011719 123.98515625 148.74023438 125.0078125 149.63671875 C130.42529306 154.45635745 135.45080459 159.35306396 140 165 C140.75796875 165.93199219 141.5159375 166.86398438 142.296875 167.82421875 C158.23657128 187.77628888 169.83398855 210.48701916 177.125 234.9375 C177.52489136 236.25186035 177.52489136 236.25186035 177.93286133 237.59277344 C179.33279418 242.51085985 180.15923967 247.07281256 180.38671875 252.1875 C180.79564414 263.12903049 180.79564414 263.12903049 186.22998047 272.19287109 C192.21754873 276.44863064 198.82759523 279.40098128 205.51806641 282.37597656 C211.21587852 285.03351731 216.55000584 288.27039543 221.9375 291.5 C223.84166693 292.61591705 225.74658191 293.73055892 227.65234375 294.84375 C229.43535216 295.89505978 231.21790753 296.94713833 233 298 C234.40596436 298.82564453 234.40596436 298.82564453 235.84033203 299.66796875 C236.73993652 300.20035156 237.63954102 300.73273438 238.56640625 301.28125 C239.37150635 301.75626953 240.17660645 302.23128906 241.00610352 302.72070312 C243 304 243 304 245 306 C245.26006222 307.90598106 245.26006222 307.90598106 245.27415466 310.27572632 C245.28911736 311.62165108 245.28911736 311.62165108 245.30438232 312.99476624 C245.305047 313.98182053 245.30571167 314.96887482 245.30639648 315.98583984 C245.31472 317.02333878 245.32304352 318.06083771 245.33161926 319.129776 C245.3557958 322.57353421 245.36450073 326.01710332 245.37109375 329.4609375 C245.38005418 331.84746358 245.38917591 334.23398905 245.39845276 336.62051392 C245.4149661 341.62918465 245.42264715 346.63778835 245.42553711 351.64648438 C245.43092354 358.07189003 245.46860517 364.49666777 245.51428127 370.92189598 C245.54398955 375.85291863 245.55125932 380.78378896 245.55226326 385.71489334 C245.55647787 388.08404034 245.56896143 390.45318729 245.58978081 392.82224655 C245.61656522 396.13376071 245.61190753 399.4438048 245.59936523 402.75537109 C245.62161667 404.22987984 245.62161667 404.22987984 245.64431763 405.73417664 C245.57236057 412.38862753 245.57236057 412.38862753 242.62139893 415.54072571 C241.75633728 416.02228622 240.89127563 416.50384674 240 417 C239.16122314 417.5256958 238.32244629 418.0513916 237.45825195 418.59301758 C236.56066162 419.10501709 235.66307129 419.6170166 234.73828125 420.14453125 C233.71541016 420.73105469 232.69253906 421.31757813 231.63867188 421.921875 C230.54103516 422.54578125 229.44339844 423.1696875 228.3125 423.8125 C227.15013283 424.47741412 225.98802819 425.14278737 224.82617188 425.80859375 C222.4145854 427.1900913 220.00188656 428.56961565 217.58837891 429.94775391 C212.04829041 433.11338557 206.52506459 436.30824641 201 439.5 C198.85814895 440.73580887 196.71622141 441.97148517 194.57421875 443.20703125 C190.59537568 445.50249458 186.61669227 447.79823414 182.63821411 450.09432983 C180.84933082 451.12673478 179.06041283 452.15907956 177.27148438 453.19140625 C175.02662364 454.48685948 172.7818281 455.7824257 170.53710938 457.078125 C168.55065697 458.22439747 166.56142854 459.36587902 164.56884766 460.50146484 C163.00905742 461.41136719 161.46603084 462.35210547 159.95849609 463.34619141 C156.95755117 465.29434855 155.31322928 466.01878728 151.69482422 465.80175781 C147.79118401 464.95468801 145.11981413 463.69869553 141.68359375 461.68359375 C140.81602196 461.18147118 140.81602196 461.18147118 139.93092346 460.66920471 C138.09336929 459.60254214 136.26541781 458.52057586 134.4375 457.4375 C133.239551 456.73787183 132.04098652 456.0392964 130.84179688 455.34179688 C129.64321847 454.64324752 128.44465076 453.94467981 127.24609375 453.24609375 C126.65388535 452.90129471 126.06167694 452.55649567 125.45152283 452.20124817 C122.32603131 450.37667912 119.21967207 448.52713348 116.13305664 446.63745117 C114.88045459 445.88576579 113.62777175 445.13421502 112.375 444.3828125 C111.25738281 443.69977051 110.13976562 443.01672852 108.98828125 442.31298828 C106.15260914 440.74315023 106.15260914 440.74315023 103.51513672 441.4074707 C101.09397773 442.68464872 99.13474246 444.28470374 97 446 C94.66047968 447.49454063 92.31878324 448.95097983 89.9375 450.375 C88.97203247 450.95858276 88.97203247 450.95858276 87.98706055 451.55395508 C46.36562252 476.32801058 -5.65734751 480.48092833 -52 469 C-53.0842627 468.73147217 -53.0842627 468.73147217 -54.19042969 468.45751953 C-72.57237144 463.76790717 -90.97384994 455.64976562 -106.625 444.875 C-107.73875 444.25625 -108.8525 443.6375 -110 443 C-113.78049435 444.11030313 -117.11154186 446.08577144 -120.53515625 448.01171875 C-122.12166992 448.90213867 -122.12166992 448.90213867 -123.74023438 449.81054688 C-124.83658203 450.42994141 -125.93292969 451.04933594 -127.0625 451.6875 C-128.13177734 452.28755859 -129.20105469 452.88761719 -130.30273438 453.50585938 C-131.36943359 454.10591797 -132.43613281 454.70597656 -133.53515625 455.32421875 C-134.6039502 455.92282715 -135.67274414 456.52143555 -136.77392578 457.13818359 C-138.95568228 458.39730839 -141.11045629 459.70418771 -143.23779297 461.05322266 C-144.27178223 461.70210449 -145.30577148 462.35098633 -146.37109375 463.01953125 C-147.28689209 463.61483643 -148.20269043 464.2101416 -149.14624023 464.82348633 C-152.91558385 466.37746587 -155.07175912 465.98219641 -159 465 C-161.98413086 463.63989258 -161.98413086 463.63989258 -164.96484375 461.89453125 C-166.08197754 461.24798584 -167.19911133 460.60144043 -168.35009766 459.93530273 C-169.54602246 459.22791146 -170.74182006 458.52030509 -171.9375 457.8125 C-173.18999118 457.08238229 -174.44309324 456.35331158 -175.69677734 455.62524414 C-178.87291063 453.77747974 -182.04143858 451.91709172 -185.20806885 450.05310059 C-187.88806663 448.47809184 -190.57482363 446.9147682 -193.26171875 445.3515625 C-197.16090721 443.08250506 -201.05623501 440.8070277 -204.94921875 438.52734375 C-209.27376818 435.99950846 -213.61119679 433.4949198 -217.95703125 431.00390625 C-218.54103699 430.66874496 -219.12504272 430.33358368 -219.72674561 429.98826599 C-222.54444335 428.37125006 -225.36367516 426.75706158 -228.18603516 425.14819336 C-243.81892987 416.18107013 -243.81892987 416.18107013 -247 413 C-247.10620604 411.61796794 -247.14403524 410.2306 -247.15390015 408.8445282 C-247.16250061 407.94861969 -247.17110107 407.05271118 -247.17996216 406.12965393 C-247.18422211 405.13900436 -247.18848206 404.1483548 -247.19287109 403.12768555 C-247.20104858 402.09033264 -247.20922607 401.05297974 -247.21765137 399.98419189 C-247.24256073 396.53504016 -247.25903504 393.08592971 -247.2734375 389.63671875 C-247.27876118 388.46214426 -247.28408485 387.28756977 -247.28956985 386.07740211 C-247.31632482 379.86125973 -247.3356927 373.6451376 -247.35009766 367.42895508 C-247.36675621 360.9957072 -247.41153805 354.56297055 -247.4624691 348.12991619 C-247.49606344 343.19461961 -247.50766656 338.25944552 -247.51332474 333.32404518 C-247.52005825 330.95209659 -247.53533427 328.58015664 -247.55921555 326.20831871 C-247.59070296 322.89195021 -247.59092812 319.57697571 -247.58349609 316.26049805 C-247.59990143 315.27592117 -247.61630676 314.2913443 -247.63320923 313.27693176 C-247.5719184 306.613521 -247.5719184 306.613521 -244.63783264 303.46600342 C-243.76734787 302.98222229 -242.8968631 302.49844116 -242 302 C-240.61953491 301.1503064 -240.61953491 301.1503064 -239.21118164 300.28344727 C-238.20434326 299.71682373 -237.19750488 299.1502002 -236.16015625 298.56640625 C-235.02449219 297.92525879 -233.88882813 297.28411133 -232.71875 296.62353516 C-232.12191406 296.28831848 -231.52507812 295.95310181 -230.91015625 295.60772705 C-229.03480076 294.54683042 -227.17077185 293.46811754 -225.30859375 292.38427734 C-219.43307488 288.97891851 -213.61048431 285.74836129 -207.40234375 282.97265625 C-197.35978231 278.54909513 -197.35978231 278.54909513 -190.78515625 270.24121094 C-189.05088386 263.67130585 -188.68641751 257.02588439 -188.29589844 250.26660156 C-187.84427714 245.28088128 -186.58277036 240.64991906 -185.125 235.875 C-184.73477661 234.58625977 -184.73477661 234.58625977 -184.33666992 233.27148438 C-183.58099495 230.83942701 -182.79689215 228.41882613 -182 226 C-181.77618652 225.30293945 -181.55237305 224.60587891 -181.32177734 223.88769531 C-170.61445713 191.05404572 -147.9810718 159.6165383 -120.5 138.625 C-119.53449219 137.87347656 -118.56898438 137.12195313 -117.57421875 136.34765625 C-115.07969113 134.55769445 -112.8312948 133.52720175 -109.90478516 132.61987305 C-104.81897836 130.79726222 -100.91031061 128.68988594 -98 124 C-95.34292448 113.26302567 -96.38215602 101.65407282 -96.78753662 90.69189453 C-97.01682636 84.1264956 -97.11578072 77.55853809 -97.19842911 70.98992348 C-97.24153067 68.70282242 -97.32854473 66.42059165 -97.42184448 64.13505554 C-97.45536433 62.73223457 -97.48782093 61.32938766 -97.51904297 59.92651367 C-97.56286102 58.70647141 -97.60667908 57.48642914 -97.65182495 56.22941589 C-96.72007651 51.6131409 -94.82325149 50.65222968 -91 48 C-89.24356092 46.87113744 -87.4562045 45.7888702 -85.640625 44.7578125 C-84.62097656 44.17451172 -83.60132813 43.59121094 -82.55078125 42.99023438 C-81.46152344 42.37470703 -80.37226563 41.75917969 -79.25 41.125 C-77.49993101 40.12594487 -75.74986705 39.12688079 -74.00012207 38.1272583 C-72.19183576 37.09511879 -70.38215381 36.06546032 -68.57226562 35.03613281 C-63.03343759 31.88302512 -57.51803995 28.68929496 -52 25.5 C-49.85817884 24.26413932 -47.71625113 23.0284633 -45.57421875 21.79296875 C-41.59537568 19.49750542 -37.61669227 17.20176586 -33.63821411 14.90567017 C-31.84933082 13.87326522 -30.06041283 12.84092044 -28.27148438 11.80859375 C-26.02662364 10.51314052 -23.7818281 9.2175743 -21.53710938 7.921875 C-19.55163517 6.77616699 -17.56369217 5.63472153 -15.57275391 4.49853516 C-14.00277608 3.58408043 -12.44791156 2.64210961 -10.92333984 1.65380859 C-6.76919701 -1.00170933 -4.73219793 -1.15862073 0 0 Z M-10.7265625 16.53515625 C-11.66266357 17.08961426 -12.59876465 17.64407227 -13.56323242 18.21533203 C-15.07880737 19.12968018 -15.07880737 19.12968018 -16.625 20.0625 C-18.80033659 21.35361406 -20.97613379 22.64395232 -23.15234375 23.93359375 C-24.2801123 24.60503418 -25.40788086 25.27647461 -26.56982422 25.96826172 C-32.08240191 29.23343407 -37.63428966 32.42958192 -43.1875 35.625 C-44.26 36.2432666 -45.3325 36.8615332 -46.4375 37.49853516 C-56.60937128 43.35969068 -66.80054494 49.18700088 -77 55 C-73.15107386 59.3058725 -67.87224566 61.86088792 -62.93994141 64.74487305 C-61.12823199 65.8105988 -59.33222471 66.90005216 -57.53515625 67.99023438 C-56.38110166 68.66818964 -55.22618099 69.34467321 -54.0703125 70.01953125 C-52.50434326 70.94922729 -52.50434326 70.94922729 -50.90673828 71.89770508 C-48.09426814 73.27985155 -48.09426814 73.27985155 -45.45556641 72.36791992 C-44.64522949 71.91650635 -43.83489258 71.46509277 -43 71 C-42.14438477 70.55333984 -41.28876953 70.10667969 -40.40722656 69.64648438 C-39.49424805 69.13408203 -38.58126953 68.62167969 -37.640625 68.09375 C-36.61654541 67.52019775 -35.59246582 66.94664551 -34.53735352 66.35571289 C-33.45252686 65.74332764 -32.3677002 65.13094238 -31.25 64.5 C-30.12327881 63.86634521 -28.99655762 63.23269043 -27.83569336 62.57983398 C-21.06295269 58.76021919 -14.32115806 54.89497701 -7.63964844 50.91796875 C-3.19049024 48.27310734 1.28865954 45.68453776 5.78515625 43.12109375 C6.98709745 42.43422798 8.18900161 41.74729739 9.39086914 41.06030273 C11.18786762 40.03326025 12.98578372 39.00804608 14.78707886 37.98855591 C16.46490591 37.03876778 18.13879179 36.08202767 19.8125 35.125 C20.78832031 34.57070313 21.76414062 34.01640625 22.76953125 33.4453125 C25.11465603 32.19353979 25.11465603 32.19353979 26 30 C25.25838623 29.58637207 24.51677246 29.17274414 23.75268555 28.74658203 C20.99578642 27.20817918 18.23950783 25.668672 15.48364258 24.12841797 C14.29183222 23.46261118 13.0997771 22.79724231 11.9074707 22.13232422 C10.19157316 21.17531258 8.47663386 20.21658348 6.76171875 19.2578125 C5.73006592 18.6817627 4.69841309 18.10571289 3.63549805 17.51220703 C1.7156323 16.41061848 -0.15829434 15.22780377 -2 14 C-6.21529142 14 -7.2500888 14.4508451 -10.7265625 16.53515625 Z M36.78710938 38.80419922 C35.57764648 39.54694092 35.57764648 39.54694092 34.34375 40.3046875 C33.41796143 40.86043457 32.49217285 41.41618164 31.53833008 41.98876953 C30.53568115 42.61122559 29.53303223 43.23368164 28.5 43.875 C26.32778244 45.1838854 24.15456412 46.49111106 21.98046875 47.796875 C21.41430344 48.13973541 20.84813812 48.48259583 20.26481628 48.83584595 C14.43099761 52.36590305 8.51624228 55.74836664 2.58776855 59.11627197 C0.23199436 60.45484999 -2.12135726 61.79765814 -4.474823 63.14028931 C-6.19761752 64.1229865 -7.92082819 65.104954 -9.64404297 66.08691406 C-14.84844368 69.05371779 -20.04917096 72.02694111 -25.25 75 C-26.96352265 75.97919994 -28.67706217 76.95837037 -30.390625 77.9375 C-31.09219727 78.33839844 -31.79376953 78.73929688 -32.51660156 79.15234375 C-33.00612305 79.43207031 -33.49564453 79.71179688 -34 80 C-28.67480832 84.40343096 -22.92586804 87.84635065 -17 91.375 C-15.91976562 92.04144531 -14.83953125 92.70789063 -13.7265625 93.39453125 C-12.68242187 94.01457031 -11.63828125 94.63460937 -10.5625 95.2734375 C-9.61503906 95.84497559 -8.66757813 96.41651367 -7.69140625 97.00537109 C-5.03655928 98.28220752 -5.03655928 98.28220752 -2.3762207 97.28857422 C-1.59206787 96.86334473 -0.80791504 96.43811523 0 96 C0.60690674 95.69545898 1.21381348 95.39091797 1.83911133 95.07714844 C2.70185669 94.59810059 2.70185669 94.59810059 3.58203125 94.109375 C4.25363281 93.73723877 4.92523438 93.36510254 5.6171875 92.98168945 C6.34164062 92.57523193 7.06609375 92.16877441 7.8125 91.75 C8.98232422 91.09680786 8.98232422 91.09680786 10.17578125 90.43041992 C17.66801258 86.22555142 25.08932533 81.9001724 32.49951172 77.55273438 C38.07426212 74.28297152 43.66290427 71.04080002 49.27734375 67.83984375 C50.48441203 67.15004851 51.69144365 66.46018913 52.8984375 65.77026367 C55.22482489 64.44065448 57.55465658 63.11780387 59.88671875 61.7980957 C60.9334375 61.19956787 61.98015625 60.60104004 63.05859375 59.984375 C63.98986084 59.45553711 64.92112793 58.92669922 65.88061523 58.38183594 C68.12360367 57.17361722 68.12360367 57.17361722 69 55 C65.37130542 52.89889584 61.74172471 50.79933321 58.11132812 48.70117188 C56.8773615 47.98772423 55.64363466 47.27386169 54.41015625 46.55957031 C52.63344746 45.53079861 50.85587141 44.50353987 49.078125 43.4765625 C47.47565918 42.549646 47.47565918 42.549646 45.84082031 41.60400391 C44.90334961 41.07468262 43.96587891 40.54536133 43 40 C42.31067383 39.55076172 41.62134766 39.10152344 40.91113281 38.63867188 C38.94345812 37.76091358 38.94345812 37.76091358 36.78710938 38.80419922 Z M-84 67 C-84 95.05 -84 123.1 -84 152 C-71.13 159.425 -71.13 159.425 -58 167 C-50.51171875 171.32421875 -50.51171875 171.32421875 -47.53295898 173.04467773 C-42.35712325 176.03294017 -37.17889102 179.0170365 -32 182 C-30.95650391 182.60134766 -29.91300781 183.20269531 -28.83789062 183.82226562 C-25.87251402 185.52982987 -22.90534701 187.23423393 -19.9375 188.9375 C-19.04442139 189.45207764 -18.15134277 189.96665527 -17.23120117 190.49682617 C-16.42142822 190.96064697 -15.61165527 191.42446777 -14.77734375 191.90234375 C-14.06827881 192.30960693 -13.35921387 192.71687012 -12.62866211 193.13647461 C-11.15998789 194.07807255 -11.15998789 194.07807255 -10 194 C-10 165.95 -10 137.9 -10 109 C-25.37082824 100.25610842 -25.37082824 100.25610842 -41 92 C-41.01981934 92.71655762 -41.03963867 93.43311523 -41.06005859 94.17138672 C-41.15509519 97.4063063 -41.26486019 100.64056094 -41.375 103.875 C-41.4059375 105.00292969 -41.436875 106.13085938 -41.46875 107.29296875 C-41.50742188 108.36933594 -41.54609375 109.44570312 -41.5859375 110.5546875 C-41.6173584 111.54968262 -41.6487793 112.54467773 -41.68115234 113.56982422 C-42 116 -42 116 -44 118 C-46.9375 118.4375 -46.9375 118.4375 -50 118 C-52.22703145 115.2280397 -52.99024839 113.56933691 -53.05151367 109.99243164 C-52.92494385 108.89278076 -52.79837402 107.79312988 -52.66796875 106.66015625 C-51.22580916 93.19688806 -51.22580916 93.19688806 -56.29296875 81.32275391 C-62.02605395 76.8846419 -68.41953408 73.84453864 -75.1315918 71.16552734 C-78.15733641 69.93606911 -81.07880873 68.46059563 -84 67 Z M69.6171875 70.3515625 C68.70976807 70.86581787 67.80234863 71.38007324 66.86743164 71.90991211 C65.8799292 72.47589111 64.89242676 73.04187012 63.875 73.625 C62.33477173 74.50200562 62.33477173 74.50200562 60.76342773 75.39672852 C45.65254107 83.89426354 45.65254107 83.89426354 30.85400391 92.91113281 C27.68601099 94.80391454 24.45322724 95.87894968 20.95458984 97.03417969 C13.7583399 99.75715452 7.57243244 102.60380533 3 109 C-1.47479939 121.34310113 0.65466492 136.53128473 1.35205078 149.36407471 C1.59933416 154.39655673 1.70753226 159.43192192 1.828125 164.46875 C2.08417795 174.32011596 2.49265281 184.15859573 3 194 C5.41147861 192.71832726 7.82245582 191.43572649 10.2331543 190.15258789 C10.91280998 189.7914817 11.59246567 189.43037552 12.29271698 189.05832672 C16.86568081 186.62306524 21.37339039 184.10990028 25.8125 181.4375 C34.25911155 176.41129205 42.7734486 171.506052 51.30004883 166.61694336 C53.35519155 165.43535195 55.3993966 164.23447256 57.43060303 163.01219177 C59.85360441 161.59098443 62.28131327 160.42399125 64.86985779 159.33621216 C72.11644549 156.12251434 72.11644549 156.12251434 76.83390808 150.07637978 C78.12628451 144.36549349 77.72093837 138.55256293 77.46484375 132.74609375 C77.43683154 130.87574303 77.4154962 129.00528148 77.40052795 127.13478088 C77.34351393 122.23431193 77.19645835 117.34061851 77.02996826 112.44281006 C76.87592075 107.43611338 76.8078906 102.42831021 76.73242188 97.41992188 C76.5720201 87.61031952 76.31637851 77.80572508 76 68 C73.3136775 68 71.95361763 69.02176826 69.6171875 70.3515625 Z M89 139 C89.02525757 139.86165771 89.02525757 139.86165771 89.05102539 140.74072266 C89.1016246 143.37029208 89.08261777 145.99505899 89.0625 148.625 C89.09021484 149.52863281 89.11792969 150.43226563 89.14648438 151.36328125 C89.02697025 157.91265543 89.02697025 157.91265543 86.34716797 160.75 C83.97381654 162.36972799 81.55674499 163.68883692 79 165 C77.08207767 166.09676546 75.1654671 167.19582718 73.25 168.296875 C71.16839407 169.45103767 69.08499309 170.60196755 67 171.75 C59.14921192 176.10926689 51.33599035 180.50987451 43.61450195 185.09399414 C35.92768575 189.6520569 28.17894419 194.10223187 20.43383789 198.56030273 C19.38703857 199.16302002 18.34023926 199.7657373 17.26171875 200.38671875 C16.22837402 200.97759277 15.1950293 201.5684668 14.13037109 202.17724609 C11.98535765 203.4262455 9.85863133 204.70703495 7.74853516 206.01416016 C6.70358887 206.65530762 5.65864258 207.29645508 4.58203125 207.95703125 C3.65237549 208.54073486 2.72271973 209.12443848 1.76489258 209.72583008 C-1.48002729 211.22121523 -3.46265943 211.41479929 -7 211 C-9.43994141 209.96875 -9.43994141 209.96875 -11.8515625 208.5 C-12.77066406 207.95085937 -13.68976563 207.40171875 -14.63671875 206.8359375 C-15.62285156 206.23007813 -16.60898438 205.62421875 -17.625 205 C-19.7829514 203.70682567 -21.94184422 202.41522131 -24.1015625 201.125 C-25.22981445 200.44695312 -26.35806641 199.76890625 -27.52050781 199.0703125 C-32.71228631 195.96655965 -37.97532445 192.98764192 -43.23553467 190.00192261 C-55.61724712 182.97117091 -67.93977805 175.83995443 -80.21484375 168.62451172 C-82.24174872 167.44226894 -84.27673465 166.27384777 -86.31640625 165.11376953 C-87.40824219 164.48970215 -88.50007813 163.86563477 -89.625 163.22265625 C-90.62789063 162.65426025 -91.63078125 162.08586426 -92.6640625 161.50024414 C-95 160 -95 160 -96 158 C-96.15004973 156.6265365 -96.24838006 155.2471474 -96.31640625 153.8671875 C-96.35830078 153.06152344 -96.40019531 152.25585938 -96.44335938 151.42578125 C-96.48267578 150.58402344 -96.52199219 149.74226562 -96.5625 148.875 C-96.60568359 148.02550781 -96.64886719 147.17601562 -96.69335938 146.30078125 C-96.79954236 144.20071777 -96.90028497 142.10038052 -97 140 C-109.27875753 144.27184461 -120.09484146 155.86650406 -129 165 C-129.61875 165.57363281 -130.2375 166.14726562 -130.875 166.73828125 C-155.57681293 190.16089315 -173.08310451 226.1510076 -177 260 C-177.02563799 261.66646946 -177.03244223 263.33364911 -177 265 C-175.35390507 264.10464743 -173.70814132 263.20868601 -172.0625 262.3125 C-171.05832031 261.77109375 -170.05414063 261.2296875 -169.01953125 260.671875 C-167.15920007 259.64183394 -165.31765258 258.57580914 -163.51171875 257.453125 C-162.76535156 256.99421875 -162.01898438 256.5353125 -161.25 256.0625 C-160.59515625 255.64097656 -159.9403125 255.21945312 -159.265625 254.78515625 C-155.87785075 253.61111724 -153.32856242 253.9042315 -150 255 C-145.88460811 257.00307025 -141.98583311 259.33448721 -138.0625 261.6875 C-136.90350095 262.37100858 -135.74382042 263.05336277 -134.58349609 263.73461914 C-132.20305785 265.13433798 -129.82631745 266.54002446 -127.45263672 267.95117188 C-122.36096542 270.97661411 -117.24193671 273.95506429 -112.125 276.9375 C-111.16529297 277.49912842 -110.20558594 278.06075684 -109.21679688 278.6394043 C-103.69336897 281.86762398 -98.15200094 285.06180852 -92.58984375 288.22265625 C-91.96251343 288.57947983 -91.33518311 288.93630341 -90.68884277 289.30393982 C-87.63709063 291.03917034 -84.5833015 292.77063019 -81.52587891 294.49584961 C-80.41519043 295.12628174 -79.30450195 295.75671387 -78.16015625 296.40625 C-77.18699463 296.95603516 -76.21383301 297.50582031 -75.21118164 298.07226562 C-74.1514917 298.70841797 -73.09180176 299.34457031 -72 300 C-71.26033776 300.37449783 -70.52067553 300.74899567 -69.75859928 301.13484192 C-63.51756225 304.62637358 -63.51756225 304.62637358 -62.15667439 308.23821259 C-61.82701106 310.99532769 -61.78327715 313.63170576 -61.83544922 316.40820312 C-61.81967834 317.44307358 -61.80390747 318.47794403 -61.78765869 319.54417419 C-61.74811189 322.95792336 -61.7742386 326.36745988 -61.8046875 329.78125 C-61.79862336 332.15727543 -61.78988743 334.53329542 -61.77859497 336.90930176 C-61.76533274 341.88620221 -61.78458764 346.86164776 -61.82666016 351.83837891 C-61.87794303 358.21505777 -61.84841438 364.5883281 -61.79450798 370.9648819 C-61.76196968 375.87047975 -61.77234313 380.77527066 -61.79565811 385.68089294 C-61.80165767 388.03161524 -61.79430836 390.38241104 -61.77334213 392.73304749 C-61.75044902 396.0212674 -61.78534474 399.30398655 -61.83544922 402.59179688 C-61.81723114 403.56132797 -61.79901306 404.53085907 -61.78024292 405.5297699 C-61.89403237 409.56462179 -61.98158176 412.01210267 -64.96129131 414.9025135 C-67.25000305 416.44777907 -69.53938116 417.75092463 -72 419 C-73.1247876 419.6791748 -74.2495752 420.35834961 -75.40844727 421.05810547 C-76.45057373 421.65510254 -77.4927002 422.25209961 -78.56640625 422.8671875 C-79.71044922 423.52460938 -80.85449219 424.18203125 -82.03320312 424.859375 C-83.20959608 425.53131887 -84.38602884 426.20319306 -85.5625 426.875 C-86.7742529 427.57002603 -87.98584257 428.26533672 -89.19726562 428.9609375 C-92.12992458 430.64341913 -95.06418642 432.32303108 -98 434 C-94.12898822 437.18330002 -90.24175384 439.61546449 -85.75 441.8125 C-85.05108643 442.15579346 -84.35217285 442.49908691 -83.63208008 442.8527832 C-39.10179322 464.4256303 9.53959393 467.43293275 56.51367188 451.43798828 C69.49745942 446.79217212 81.4751177 440.53627086 93 433 C89.82657279 430.49759955 86.50375713 428.49202254 82.9921875 426.49609375 C81.82941943 425.8313936 80.66665924 425.16667965 79.50390625 424.50195312 C77.68296656 423.46532345 75.8614137 422.42978158 74.03955078 421.39477539 C72.27223745 420.38952985 70.50714593 419.38046643 68.7421875 418.37109375 C67.6888623 417.77224365 66.63553711 417.17339355 65.55029297 416.55639648 C63 415 63 415 61 413 C60.72876453 411.09960556 60.72876453 411.09960556 60.69892883 408.73773193 C60.68317307 407.84333908 60.6674173 406.94894623 60.65118408 406.02745056 C60.6407608 404.55158226 60.6407608 404.55158226 60.63012695 403.04589844 C60.61537827 402.01161209 60.60062958 400.97732574 60.58543396 399.91169739 C60.54079052 396.47760016 60.51265554 393.0436733 60.48828125 389.609375 C60.47888205 388.43821388 60.46948284 387.26705276 60.45979881 386.06040192 C60.41218179 379.86141073 60.37851514 373.66250487 60.35473633 367.46337891 C60.32701899 361.05559729 60.2478473 354.64952179 60.15719318 348.24236679 C60.09742597 343.31983907 60.07747456 338.39771892 60.06822777 333.47486115 C60.05662941 331.11285304 60.02973815 328.75086885 59.98729897 326.38921356 C59.93139202 323.08196899 59.93215414 319.77926296 59.9465332 316.47167969 C59.91731781 315.49586441 59.88810242 314.52004913 59.85800171 313.5146637 C59.92649255 309.45038419 59.97176843 307.00027367 62.97105885 304.08253479 C65.25673243 302.53934372 67.53766304 301.23724553 70 300 C70.96881104 299.42443359 71.93762207 298.84886719 72.93579102 298.25585938 C74.20700806 297.55686523 74.20700806 297.55686523 75.50390625 296.84375 C76.96654907 296.03369507 76.96654907 296.03369507 78.45874023 295.20727539 C79.48298096 294.64387451 80.50722168 294.08047363 81.5625 293.5 C91.06422119 288.22656931 100.49010713 282.84221013 109.86474609 277.34643555 C118.73077621 272.14938461 127.62961135 267.01094966 136.53686523 261.88500977 C138.08676147 260.9925354 138.08676147 260.9925354 139.66796875 260.08203125 C140.57828857 259.55843018 141.4886084 259.0348291 142.42651367 258.49536133 C144.18569913 257.47316126 145.92121013 256.40939749 147.6340332 255.3112793 C151.21523543 253.32648545 153.07887669 253.90722793 157 255 C159.70236605 256.46885362 162.28561603 258.04500278 164.86328125 259.72265625 C166.87120544 261.17103685 166.87120544 261.17103685 169 261 C163.92328501 218.11312409 139.69554592 177.15397789 105.98193359 150.3984375 C97.87047525 144.10300117 97.87047525 144.10300117 89 139 Z M-157.24462891 267.82006836 C-158.06366699 268.32159424 -158.88270508 268.82312012 -159.7265625 269.33984375 C-161.13059326 270.18107788 -161.13059326 270.18107788 -162.56298828 271.03930664 C-163.57345215 271.66571045 -164.58391602 272.29211426 -165.625 272.9375 C-167.80145314 274.24844265 -169.97855901 275.55830214 -172.15625 276.8671875 C-173.28417969 277.55135742 -174.41210938 278.23552734 -175.57421875 278.94042969 C-181.04448346 282.22913786 -186.58611029 285.39125319 -192.125 288.5625 C-203.80524268 295.28215769 -215.41717091 302.11400635 -227 309 C-222.33496431 313.98309069 -216.76203358 317.15261682 -210.9375 320.625 C-209.85533203 321.32496094 -208.77316406 322.02492188 -207.65820312 322.74609375 C-204.40784156 324.66082384 -201.66806611 326.10420052 -198 327 C-193.68539905 325.86209884 -190.56386236 323.61955544 -187 321 C-185.62454303 320.21478042 -184.23603611 319.45170432 -182.83203125 318.71875 C-172.10977073 312.81310411 -161.52682968 306.68194741 -150.96875 300.48828125 C-147.08594784 298.21217758 -143.19145971 295.95915251 -139.28125 293.73046875 C-137.95661743 292.97334595 -137.95661743 292.97334595 -136.60522461 292.20092773 C-134.94702867 291.25472913 -133.2864838 290.31263165 -131.62329102 289.37524414 C-130.52778931 288.74863892 -130.52778931 288.74863892 -129.41015625 288.109375 C-128.77215088 287.74811523 -128.13414551 287.38685547 -127.47680664 287.01464844 C-125.82638528 286.05606238 -125.82638528 286.05606238 -125 284 C-128.62869458 281.89889584 -132.25827529 279.79933321 -135.88867188 277.70117188 C-137.1226385 276.98772423 -138.35636534 276.27386169 -139.58984375 275.55957031 C-141.36655254 274.53079861 -143.14412859 273.50353987 -144.921875 272.4765625 C-146.52434082 271.549646 -146.52434082 271.549646 -148.15917969 270.60400391 C-149.09665039 270.07468262 -150.03412109 269.54536133 -151 269 C-151.68787598 268.55003662 -152.37575195 268.10007324 -153.08447266 267.63647461 C-155.06198347 266.75896548 -155.06198347 266.75896548 -157.24462891 267.82006836 Z M147.56640625 269.53515625 C146.62071777 270.08953369 145.6750293 270.64391113 144.70068359 271.21508789 C143.14728271 272.12955688 143.14728271 272.12955688 141.5625 273.0625 C139.35841977 274.35475844 137.15398046 275.64640459 134.94921875 276.9375 C134.37806335 277.2721376 133.80690796 277.60677521 133.21844482 277.95155334 C127.12220216 281.5202092 120.99862259 285.04108363 114.875 288.5625 C103.19614852 295.28463475 91.58287125 302.11398128 80 309 C84.66602002 313.99694831 90.27721152 317.11406455 96.125 320.5625 C97.21554687 321.25408203 98.30609375 321.94566406 99.4296875 322.65820312 C105.17158775 326.20860862 105.17158775 326.20860862 111.64746094 326.50878906 C114.29679833 325.2129289 116.59201933 323.70092087 119 322 C120.76338278 320.97920722 122.53452504 319.97172167 124.3125 318.9765625 C126.21009465 317.86236931 128.10585213 316.74504276 130 315.625 C132.11028494 314.38474919 134.22097697 313.14519085 136.33203125 311.90625 C137.42080566 311.266875 138.50958008 310.6275 139.63134766 309.96875 C145.29886434 306.65646891 150.99512681 303.39430732 156.6875 300.125 C165.21409545 295.22098271 173.69043717 290.26496592 182 285 C178.58639988 282.15870277 175.13490946 279.77799474 171.296875 277.546875 C170.2346875 276.928125 169.1725 276.309375 168.078125 275.671875 C166.43070313 274.72054688 166.43070313 274.72054688 164.75 273.75 C163.63625 273.1003125 162.5225 272.450625 161.375 271.78125 C154.49005849 267.04669462 154.49005849 267.04669462 147.56640625 269.53515625 Z M-112 292 C-114.58322792 293.18424263 -116.75188959 294.40989308 -119.125 295.9375 C-120.65897879 296.88212309 -122.1942182 297.82470101 -123.73046875 298.765625 C-124.5714209 299.28576172 -125.41237305 299.80589844 -126.27880859 300.34179688 C-131.27555766 303.38664881 -136.36228582 306.27605155 -141.4375 309.1875 C-143.65635696 310.46726249 -145.87510514 311.74721359 -148.09375 313.02734375 C-152.22621809 315.40777318 -156.362948 317.78033588 -160.50572205 320.14277649 C-162.90676421 321.51261652 -165.30578616 322.88597204 -167.70462036 324.25967407 C-169.40518037 325.2315296 -171.10869232 326.19821395 -172.81225586 327.16479492 C-174.35731812 328.05001831 -174.35731812 328.05001831 -175.93359375 328.953125 C-176.84165771 329.47036133 -177.74972168 329.98759766 -178.68530273 330.52050781 C-180.77350796 331.85523239 -182.34578204 333.16933668 -184 335 C-183.07960937 335.556875 -182.15921875 336.11375 -181.2109375 336.6875 C-180.30371948 337.23651978 -180.30371948 337.23651978 -179.37817383 337.79663086 C-178.03046058 338.60624434 -176.67863029 339.40903953 -175.32299805 340.20532227 C-171.89265713 342.22413153 -168.55198382 344.28067669 -165.30859375 346.58984375 C-164.42518311 347.18249023 -164.42518311 347.18249023 -163.52392578 347.78710938 C-161.89836917 348.87978024 -160.30167432 350.01503227 -158.70703125 351.15234375 C-152.53872784 352.5627988 -148.24360996 349.09415238 -143 346 C-142.07775635 345.47929932 -141.1555127 344.95859863 -140.20532227 344.42211914 C-137.40998668 342.83215097 -134.64117567 341.20262604 -131.875 339.5625 C-129.78684488 338.33397815 -127.69828815 337.10613874 -125.609375 335.87890625 C-124.53365234 335.2461377 -123.45792969 334.61336914 -122.34960938 333.96142578 C-115.55813741 329.98455364 -108.72998096 326.07096396 -101.90576172 322.15063477 C-99.89344971 320.99257611 -97.88340408 319.83056764 -95.87597656 318.6640625 C-93.93324045 317.53998021 -91.98174318 316.43092502 -90.02246094 315.3359375 C-89.1049707 314.81257813 -88.18748047 314.28921875 -87.2421875 313.75 C-86.42347168 313.29109375 -85.60475586 312.8321875 -84.76123047 312.359375 C-84.18002441 311.91078125 -83.59881836 311.4621875 -83 311 C-83 310.01 -83 309.02 -83 308 C-86.48647816 306.04162157 -89.97363905 304.08446498 -93.46142578 302.12841797 C-94.64683364 301.46338571 -95.8320573 300.79802501 -97.01708984 300.13232422 C-98.72444496 299.17328091 -100.43252705 298.21553216 -102.140625 297.2578125 C-103.16704102 296.6817627 -104.19345703 296.10571289 -105.25097656 295.51220703 C-106.61174316 294.76366455 -106.61174316 294.76366455 -108 294 C-108.71494629 293.57259521 -109.42989258 293.14519043 -110.16650391 292.70483398 C-111.07408447 292.35594116 -111.07408447 292.35594116 -112 292 Z M189.421875 295.3515625 C188.07041382 296.12294556 188.07041382 296.12294556 186.69165039 296.90991211 C185.72090576 297.47589111 184.75016113 298.04187012 183.75 298.625 C182.73220459 299.20967041 181.71440918 299.79434082 180.66577148 300.39672852 C177.43815259 302.25482965 174.21835954 304.12591361 171 306 C169.99662598 306.58217285 168.99325195 307.1643457 167.95947266 307.76416016 C162.00514196 311.21933545 156.0611764 314.69192878 150.12158203 318.17236328 C144.58526453 321.41378928 139.04217885 324.64360974 133.5 327.875 C131.46872178 329.05984746 129.43746906 330.24473862 127.40625 331.4296875 C125.9375 332.28645833 124.46875 333.14322917 123 334 C126.85488764 338.22559702 131.83704194 340.99933077 136.67553711 343.96459961 C137.84595622 344.69390192 139.00487116 345.44201384 140.15112305 346.20874023 C143.97067459 348.756755 147.54925389 350.81532761 152 352 C156.67517726 350.98459172 160.0896968 348.68202237 164 346 C165.82900846 344.94750153 167.66490258 343.90686928 169.5078125 342.87890625 C171.38234261 341.77706044 173.25466966 340.67145976 175.125 339.5625 C177.21315512 338.33397815 179.30171185 337.10613874 181.390625 335.87890625 C182.46634766 335.2461377 183.54207031 334.61336914 184.65039062 333.96142578 C191.44186259 329.98455364 198.27001904 326.07096396 205.09423828 322.15063477 C207.10655029 320.99257611 209.11659592 319.83056764 211.12402344 318.6640625 C213.06675955 317.53998021 215.01825682 316.43092502 216.97753906 315.3359375 C217.8950293 314.81257813 218.81251953 314.28921875 219.7578125 313.75 C220.57652832 313.29109375 221.39524414 312.8321875 222.23876953 312.359375 C222.81997559 311.91078125 223.40118164 311.4621875 224 311 C224 310.01 224 309.02 224 308 C222.97845825 307.42499756 222.97845825 307.42499756 221.9362793 306.83837891 C218.85267067 305.10179406 215.77007527 303.36341842 212.6875 301.625 C211.61564453 301.02171875 210.54378906 300.4184375 209.43945312 299.796875 C207.89741211 298.92675781 207.89741211 298.92675781 206.32421875 298.0390625 C205.37635498 297.50490723 204.42849121 296.97075195 203.4519043 296.42041016 C201.59555928 295.34501283 199.78503321 294.19002214 198 293 C193.88253544 293 192.83648495 293.38234538 189.421875 295.3515625 Z M-235 321 C-235 349.05 -235 377.1 -235 406 C-226.75 410.62 -218.5 415.24 -210 420 C-201.98903897 424.64884785 -193.9867782 429.31007485 -186 434 C-181.52247034 436.62780461 -177.04297344 439.25221856 -172.5625 441.875 C-171.51892334 442.48859375 -170.47534668 443.1021875 -169.40014648 443.734375 C-168.44438721 444.29382813 -167.48862793 444.85328125 -166.50390625 445.4296875 C-165.65642822 445.92710449 -164.8089502 446.42452148 -163.93579102 446.93701172 C-162.2219842 448.08022146 -162.2219842 448.08022146 -161 448 C-161 419.95 -161 391.9 -161 363 C-175.83769606 354.19823265 -175.83769606 354.19823265 -191 346 C-191.01458252 346.68102783 -191.02916504 347.36205566 -191.04418945 348.0637207 C-191.11862696 351.14722215 -191.21530083 354.22963567 -191.3125 357.3125 C-191.33505859 358.38435547 -191.35761719 359.45621094 -191.38085938 360.56054688 C-191.41630859 361.58857422 -191.45175781 362.61660156 -191.48828125 363.67578125 C-191.51446533 364.62364502 -191.54064941 365.57150879 -191.56762695 366.5480957 C-192 369 -192 369 -193.30541992 370.84838867 C-195 372 -195 372 -198.625 371.75 C-202 371 -202 371 -203 370 C-202.85082207 367.79524914 -202.65359573 365.5937318 -202.4375 363.39453125 C-200.94308624 348.4160755 -200.94308624 348.4160755 -206.39990234 335.16308594 C-212.36143644 330.62803767 -219.02630956 327.66843088 -226.03979492 325.11791992 C-229.11487299 323.95661828 -232.05996917 322.47001542 -235 321 Z M-82.4765625 325.0078125 C-83.61037354 325.65790283 -84.74418457 326.30799316 -85.91235352 326.9777832 C-87.14998352 327.69338175 -88.38753033 328.40912423 -89.625 329.125 C-90.89558324 329.85600621 -92.16633705 330.58671603 -93.43725586 331.31713867 C-109.70293859 340.49174501 -109.70293859 340.49174501 -125.63793945 350.20629883 C-128.54260465 351.75597388 -130.76762435 352.51918215 -133.89916992 353.34643555 C-139.93894696 355.28777988 -144.58968984 357.45241317 -148 363 C-151.73634489 375.53793113 -149.85495699 390.27945957 -149.30462646 403.15808105 C-149.10925309 408.21131831 -149.02327985 413.26633013 -148.92773438 418.32226562 C-148.72474006 428.21956947 -148.40109418 438.10888062 -148 448 C-124.39912131 435.46366579 -124.39912131 435.46366579 -101.47651672 421.76754761 C-97.67135042 419.36723951 -94.19408313 417.67327214 -89.86938477 416.40185547 C-83.60154819 414.22263932 -78.67249607 411.70092093 -75 406 C-71.09171937 393.67263447 -73.04686419 378.94325324 -73.62670898 366.23681641 C-73.83252777 361.25070353 -73.92289607 356.26258684 -74.0234375 351.2734375 C-74.23699178 341.51030559 -74.5775678 331.75617213 -75 322 C-78.01549998 322 -79.87408302 323.50994375 -82.4765625 325.0078125 Z M73 322 C72.65167843 332.79575718 72.38556049 343.5901689 72.22281742 354.39041042 C72.14468192 359.40642319 72.03884092 364.41858026 71.8684082 369.43237305 C71.70479211 374.27623488 71.61562364 379.11640381 71.57684135 383.96281624 C71.54922913 385.80646005 71.49529329 387.64991217 71.41404915 389.49197197 C70.68517604 399.15865716 70.68517604 399.15865716 74.44334602 407.63426208 C78.00522254 410.50029298 81.91790675 412.41157853 86.11431885 414.17347908 C88.96314734 415.4221612 91.57981679 417.02586504 94.23828125 418.6328125 C96.26221867 419.79826916 98.2869744 420.96230574 100.3125 422.125 C102.55344577 423.41395758 104.79432922 424.70302351 107.03515625 425.9921875 C108.17355957 426.64670898 109.31196289 427.30123047 110.48486328 427.97558594 C114.07587839 430.0420413 117.6612681 432.11814416 121.24609375 434.1953125 C122.43120601 434.88139554 123.61634563 435.5674313 124.80151367 436.25341797 C127.05110332 437.55587065 129.29999748 438.85952552 131.5480957 440.16455078 C132.56863037 440.75478027 133.58916504 441.34500977 134.640625 441.953125 C135.53297852 442.47036133 136.42533203 442.98759766 137.34472656 443.52050781 C140.18252736 445.10170245 143.09437926 446.54718963 146 448 C146 419.95 146 391.9 146 363 C131.16230394 354.19823265 131.16230394 354.19823265 116 346 C115.98541748 346.68102783 115.97083496 347.36205566 115.95581055 348.0637207 C115.88137304 351.14722215 115.78469917 354.22963567 115.6875 357.3125 C115.66494141 358.38435547 115.64238281 359.45621094 115.61914062 360.56054688 C115.58369141 361.58857422 115.54824219 362.61660156 115.51171875 363.67578125 C115.48553467 364.62364502 115.45935059 365.57150879 115.43237305 366.5480957 C115 369 115 369 113.69458008 370.84838867 C112 372 112 372 108.375 371.75 C105 371 105 371 104 370 C104.12438602 367.7838747 104.29849182 365.57052068 104.4921875 363.359375 C105.91450892 348.51297379 105.91450892 348.51297379 100.78027344 335.26123047 C95.31422059 331.00421873 89.1771111 328.30174779 82.66308594 326.02612305 C79.88617423 324.95614139 77.54313362 323.5313756 75 322 C74.34 322 73.68 322 73 322 Z M227.71484375 323.3515625 C226.80436279 323.8657373 225.89388184 324.37991211 224.95581055 324.90966797 C223.95976807 325.47572754 222.96372559 326.04178711 221.9375 326.625 C220.90471924 327.21039551 219.87193848 327.79579102 218.80786133 328.39892578 C207.48161101 334.83559899 196.24662641 341.42504917 185 348 C172.13 355.425 172.13 355.425 159 363 C159 391.05 159 419.1 159 448 C177.24399181 438.04873174 195.34173812 427.87536587 213.26171875 417.3515625 C219.81560004 413.52363184 226.41013104 409.76563941 233 406 C233 377.95 233 349.9 233 321 C231.07655268 321 229.33984187 322.43269668 227.71484375 323.3515625 Z " fill="#000000" transform="translate(257,19)"/>
</svg>
