<?xml version="1.0" encoding="UTF-8"?>
<svg version="1.1" xmlns="http://www.w3.org/2000/svg" width="512" height="512">
<path d="M0 0 C2.10558414 -0.37489682 2.10558414 -0.37489682 4.76954651 -0.37473011 C5.78247993 -0.38193665 6.79541334 -0.3891432 7.83904171 -0.39656812 C8.96022679 -0.38919383 10.08141188 -0.38181955 11.23657227 -0.3742218 C12.42110017 -0.37819621 13.60562807 -0.38217061 14.82605076 -0.38626546 C18.12431299 -0.39425185 21.4220595 -0.38869745 24.72028017 -0.37751496 C28.2731576 -0.36870024 31.82599873 -0.37710852 35.37887573 -0.38337708 C42.34300999 -0.39288313 49.30704091 -0.3862495 56.27116752 -0.37411413 C64.37424668 -0.36051813 72.477301 -0.36212986 80.58038867 -0.36424746 C95.03440799 -0.36743999 109.48837809 -0.35575456 123.94238281 -0.33618164 C137.98080952 -0.31717636 152.01917853 -0.31009376 166.05761719 -0.31567383 C181.32962286 -0.32172623 196.60160313 -0.32156446 211.87360668 -0.310188 C213.50085131 -0.30898065 215.12809594 -0.30777467 216.75534058 -0.30657005 C217.95642144 -0.30566475 217.95642144 -0.30566475 219.18176657 -0.30474115 C224.83546489 -0.30085534 230.48915377 -0.30125818 236.14285278 -0.3031559 C243.0290112 -0.30527402 249.91511897 -0.30008296 256.80126309 -0.28554235 C260.31740996 -0.27827899 263.83348292 -0.27423776 267.34963608 -0.27878571 C271.15428331 -0.28358724 274.95879511 -0.27298384 278.76342773 -0.26069641 C279.88461282 -0.26447573 281.0057979 -0.26825506 282.16095829 -0.27214891 C283.17389171 -0.26631671 284.18682512 -0.26048452 285.23045349 -0.25447559 C286.10956107 -0.25360882 286.98866865 -0.25274204 287.89441586 -0.251849 C290 0 290 0 292 2 C292.25480902 3.78728402 292.25480902 3.78728402 292.26171303 5.9942646 C292.26917852 6.83426164 292.27664401 7.67425867 292.28433573 8.53971016 C292.28143363 9.93171303 292.28143363 9.93171303 292.2784729 11.35183716 C292.2842653 12.33359857 292.2900577 13.31535999 292.29602563 14.32687175 C292.31311643 17.63738076 292.31590992 20.94775113 292.31884766 24.25830078 C292.32813957 26.62310125 292.33830712 28.98789842 292.34928894 31.35269165 C292.37383722 37.12096138 292.3892119 42.88920374 292.40060402 48.65751328 C292.41434679 55.36778994 292.43930629 62.07801043 292.46498732 68.78825031 C292.51048872 80.75546211 292.54708965 92.722684 292.578125 104.68994141 C292.60829686 116.31691257 292.64264082 127.94385902 292.68261719 139.57080078 C292.68630951 140.64533102 292.68630951 140.64533102 292.69007643 141.74156894 C292.70245076 145.33520501 292.71490735 148.92884079 292.72740483 152.52247643 C292.83102274 182.3482834 292.92006165 212.17411959 293 242 C293.96281387 242.1326828 294.92562775 242.2653656 295.9176178 242.40206909 C297.17980637 242.57860016 298.44199493 242.75513123 299.74243164 242.93701172 C300.99399551 243.11094452 302.24555939 243.28487732 303.53504944 243.46408081 C320.2876141 246.0551772 335.59394812 254.7273914 348 266 C348.94746094 266.82564453 348.94746094 266.82564453 349.9140625 267.66796875 C364.90125453 281.52598878 374.71421244 303.74884585 376 324 C376.94485337 348.16995876 370.83224331 370.36773113 355 389 C354.43023437 389.72574219 353.86046875 390.45148438 353.2734375 391.19921875 C340.19498053 407.14380565 319.96875079 416.47221794 300 420 C272.92733303 421.78498395 248.92710722 417.18980628 228 399 C221.10285717 392.73654939 214.66432223 386.13470532 210 378 C210 377.34 210 376.68 210 376 C208.92563533 376.00368717 207.85127066 376.00737434 206.74434948 376.01117325 C180.6311954 376.09987832 154.51806081 376.16565867 128.40478802 376.20724869 C115.77672161 376.22789468 103.14875458 376.25605419 90.52075195 376.30175781 C79.51721835 376.34156321 68.51375671 376.36741798 57.51015311 376.37635398 C51.68105751 376.38157939 45.85216781 376.3939033 40.02313805 376.42292023 C34.54108994 376.4499898 29.05933332 376.45846213 23.57722473 376.45243073 C21.56115957 376.45353476 19.54508506 376.46153872 17.52907753 376.4768219 C14.78409291 376.49661754 12.04022019 376.49197757 9.29521179 376.48101807 C8.49074212 376.49266943 7.68627245 376.5043208 6.85742491 376.51632524 C1.47560307 376.45793054 1.47560307 376.45793054 -0.70365274 374.35965186 C-2.37357828 371.32000112 -2.37490065 369.21834478 -2.37473011 365.75337887 C-2.38193665 364.4618918 -2.3891432 363.17040474 -2.39656812 361.8397817 C-2.38939076 360.40335386 -2.38193184 358.9669274 -2.3742218 357.53050232 C-2.37696135 356.00713402 -2.38101253 354.4837676 -2.38626546 352.96040589 C-2.39687645 348.76798053 -2.38870777 344.57576762 -2.37751496 340.38335145 C-2.36868998 335.86456687 -2.3771115 331.34581062 -2.38337708 326.82702637 C-2.39287684 317.97251946 -2.38625506 309.1180939 -2.37411413 300.26359301 C-2.36051029 289.95935295 -2.36213054 279.65513239 -2.36424746 269.35088564 C-2.36743903 250.97031653 -2.35575971 232.58978614 -2.33618164 214.20922852 C-2.317174 196.35960714 -2.31009461 178.51003116 -2.31567383 160.66040039 C-2.32172671 141.23784125 -2.32156378 121.81530208 -2.310188 102.3927446 C-2.30898066 100.32317579 -2.30777468 98.25360698 -2.30657005 96.18403816 C-2.30596651 95.16568356 -2.30536298 94.14732896 -2.30474115 93.09811513 C-2.30085614 85.90948268 -2.30125786 78.72085765 -2.3031559 71.53222466 C-2.30527435 62.77673221 -2.30008032 54.02127959 -2.28554235 45.26579838 C-2.27828095 40.79561801 -2.27423615 36.32549575 -2.27878571 31.85531044 C-2.28284484 27.76768269 -2.27774624 23.68017523 -2.26515963 19.59256578 C-2.26221775 18.10946828 -2.26268484 16.62635953 -2.26680271 15.14326482 C-2.27187286 13.13577208 -2.26355946 11.12825859 -2.25447559 9.12077999 C-2.25360882 8.00315303 -2.25274204 6.88552606 -2.251849 5.73403162 C-2 3 -2 3 0 0 Z M9 11 C9 127.82 9 244.64 9 365 C73.35 365 137.7 365 204 365 C203.01 361.37 202.02 357.74 201 354 C195.69744497 331.52641944 198.05521285 306.3134527 210.03710938 286.26464844 C212.50659203 282.36811076 215.20235472 278.66912416 218 275 C218.82951172 273.89205078 218.82951172 273.89205078 219.67578125 272.76171875 C234.84748555 253.9759112 257.9965355 246.28620921 281 243 C281 166.44 281 89.88 281 11 C191.24 11 101.48 11 9 11 Z M235 273 C233.89398438 273.96486328 233.89398438 273.96486328 232.765625 274.94921875 C217.79059933 288.91730304 209.31114325 308.56530625 208.59570312 328.94287109 C208.46085599 338.82042337 209.95002083 347.62861185 213 357 C213.33902344 358.04542969 213.67804688 359.09085937 214.02734375 360.16796875 C221.34781567 379.88895537 237.38228115 394.70626652 256.18359375 403.421875 C273.84205349 411.04659953 294.97145594 411.79148283 313 405 C322.12045445 401.24851967 330.68471439 396.68276092 338 390 C339.24523437 388.87464844 339.24523437 388.87464844 340.515625 387.7265625 C355.53224982 373.47425691 363.93053204 354.30763559 364.99609375 333.69921875 C365.02038225 310.69800962 356.24692203 290.2953721 340 274 C309.95907399 247.17483707 265.34867405 246.30440708 235 273 Z " fill="#000000" transform="translate(69,46)"/>
<path d="M0 0 C3.63 0 7.26 0 11 0 C11 5.28 11 10.56 11 16 C12.98 16.33 14.96 16.66 17 17 C22.31419289 19.82669834 26.63322567 24.01939996 30 29 C30.495 31.475 30.495 31.475 31 34 C27.37 34.99 23.74 35.98 20 37 C19.4225 36.071875 18.845 35.14375 18.25 34.1875 C15.12018936 29.7536016 13.08156432 27.99529513 7.75 27.0625 C2.68322307 26.65281012 -0.94164073 27.9920396 -5 31 C-8.08157857 34.67801313 -8.83585552 38.23981008 -9 43 C-7.50834036 47.63199573 -5.83208896 50.95687053 -2 54 C1.63025801 55.68032668 4.98538062 56.40342981 8.9375 56.9375 C17.10746182 58.22907485 23.10478024 61.19485403 28.1875 67.875 C32.33063457 75.01833546 32.90660302 81.88828876 32 90 C29.77661803 97.4664269 25.32921689 102.59650833 19 107 C15.90767459 108.58052188 14.46227132 109 11 109 C11 114.28 11 119.56 11 125 C7.37 125 3.74 125 0 125 C0 119.72 0 114.44 0 109 C-1.65 108.67 -3.3 108.34 -5 108 C-11.39793499 104.83389861 -16.17989595 100.64637589 -19 94 C-19 93.01 -19 92.02 -19 91 C-15.7 90.01 -12.4 89.02 -9 88 C-7.5459375 89.918125 -7.5459375 89.918125 -6.0625 91.875 C-2.76339549 95.61974968 -0.22056258 97.30648079 4.7265625 98.015625 C8.60445076 97.98897285 11.70094377 97.02272452 15 95 C18.50006922 91.41018542 19.87062128 88.714268 20.25 83.6875 C19.88716594 78.33569763 18.41893949 75.28050637 14.4375 71.6875 C10.78243598 69.15707106 8.27729047 68.73395601 3.875 68.1875 C-4.43875244 66.92256302 -10.39912608 64.7990683 -15.6796875 58.046875 C-20.48345134 50.59961981 -22.22881331 43.40738369 -20.5625 34.71875 C-18.5189439 27.25977022 -13.89478812 21.53430562 -7.3125 17.5 C-4 16 -4 16 0 16 C0 10.72 0 5.44 0 0 Z " fill="#000000" transform="translate(350,315)"/>
<path d="M0 0 C0.87107895 -0.01606293 1.7421579 -0.03212585 2.63963318 -0.04867554 C6.61521661 -0.09305703 10.59063334 -0.13416777 14.56640625 -0.15722656 C16.66645365 -0.17381487 18.76644394 -0.20114242 20.86621094 -0.23925781 C23.88905203 -0.2938603 26.91057096 -0.31587225 29.93383789 -0.33056641 C30.87452621 -0.35323578 31.81521454 -0.37590515 32.78440857 -0.39926147 C39.17408687 -0.37843081 39.17408687 -0.37843081 41.87207031 2.15917969 C43.10045833 6.25688426 43.21095969 9.99686168 43.17993164 14.25537109 C43.18280182 15.12427979 43.185672 15.99318848 43.18862915 16.88842773 C43.19066548 18.72070978 43.18516583 20.55301377 43.17260742 22.38525391 C43.15654734 25.18360178 43.17247046 27.98050543 43.19165039 30.77880859 C43.18966788 32.56266594 43.18582405 34.34652238 43.17993164 36.13037109 C43.18904068 37.3805603 43.18904068 37.3805603 43.19833374 38.65600586 C43.15704387 42.08055887 42.861885 44.92206012 41.88354492 48.21777344 C38.3750103 51.5144105 34.38392516 50.90581516 29.75024414 50.85693359 C28.76278198 50.86171722 27.77531982 50.86650085 26.75793457 50.87142944 C24.66990568 50.87483236 22.58182379 50.86560262 20.49389648 50.84472656 C17.29298405 50.81796715 14.09557841 50.84446174 10.89477539 50.87646484 C8.86742388 50.87316082 6.84007456 50.86675473 4.81274414 50.85693359 C3.85331909 50.86705475 2.89389404 50.8771759 1.90539551 50.88760376 C-4.60025659 50.7725291 -4.60025659 50.7725291 -7.32275391 48.2199707 C-8.53842735 44.11173003 -8.62873519 40.35989192 -8.58178711 36.09521484 C-8.58228561 35.22393448 -8.58278412 34.35265411 -8.58329773 33.45497131 C-8.58096335 31.61847648 -8.57127245 29.78197807 -8.5546875 27.94555664 C-8.53105681 25.13642769 -8.53413615 22.32824635 -8.54077148 19.51904297 C-8.53519548 17.73192794 -8.52808609 15.94481691 -8.51928711 14.15771484 C-8.52019852 13.31909409 -8.52110992 12.48047333 -8.52204895 11.61643982 C-8.51251694 10.83205032 -8.50298492 10.04766083 -8.49316406 9.23950195 C-8.48855667 8.55286972 -8.48394928 7.86623749 -8.47920227 7.15879822 C-8.16761117 4.80907122 -7.45284106 3.20908964 -6.21850586 1.19287109 C-3.9207578 0.04399707 -2.55716961 0.04281142 0 0 Z M3.78149414 11.19287109 C3.78149414 20.43287109 3.78149414 29.67287109 3.78149414 39.19287109 C12.69149414 39.19287109 21.60149414 39.19287109 30.78149414 39.19287109 C30.78149414 29.95287109 30.78149414 20.71287109 30.78149414 11.19287109 C21.87149414 11.19287109 12.96149414 11.19287109 3.78149414 11.19287109 Z " fill="#000000" transform="translate(102.218505859375,296.80712890625)"/>
<path d="M0 0 C0.8510582 -0.00637985 1.70211639 -0.0127597 2.57896423 -0.01933289 C3.9602224 -0.02100212 3.9602224 -0.02100212 5.36938477 -0.02270508 C6.78611229 -0.02769768 6.78611229 -0.02769768 8.23146057 -0.03279114 C10.23128776 -0.03785927 12.23112343 -0.0401995 14.23095703 -0.04003906 C17.2948191 -0.04222493 20.35832086 -0.06038015 23.42211914 -0.0793457 C25.36287311 -0.08227973 27.3036288 -0.08426446 29.24438477 -0.08520508 C30.16319931 -0.09239059 31.08201385 -0.09957611 32.02867126 -0.10697937 C33.3099868 -0.10236443 33.3099868 -0.10236443 34.6171875 -0.09765625 C35.36838364 -0.09908127 36.11957977 -0.10050629 36.89353943 -0.10197449 C38.87329102 0.14526367 38.87329102 0.14526367 41.87329102 2.14526367 C43.19020781 6.09601406 43.05566383 9.89225729 43.07641602 14.01245117 C43.08211609 14.88418976 43.08781616 15.75592834 43.09368896 16.65408325 C43.10313284 18.49829903 43.10967052 20.34253164 43.11352539 22.18676758 C43.12323035 25.00266053 43.15425887 27.81782326 43.18579102 30.63354492 C43.19232145 32.42650934 43.19757176 34.21947898 43.20141602 36.01245117 C43.21376282 36.85218475 43.22610962 37.69191833 43.23883057 38.55709839 C43.22573835 42.00680967 42.95961192 44.85262164 41.97973633 48.17456055 C38.46482542 51.46296583 34.47589969 50.85820962 29.84204102 50.80932617 C28.85457886 50.8141098 27.8671167 50.81889343 26.84973145 50.82382202 C24.76170255 50.82722494 22.67362066 50.8179952 20.58569336 50.79711914 C17.38478092 50.77035973 14.18737529 50.79685432 10.98657227 50.82885742 C8.95922075 50.82555339 6.93187143 50.81914731 4.90454102 50.80932617 C3.94511597 50.81944733 2.98569092 50.82956848 1.99719238 50.83999634 C-4.50845971 50.72492168 -4.50845971 50.72492168 -7.23095703 48.17236328 C-8.44663047 44.06412261 -8.53693831 40.3122845 -8.48999023 36.04760742 C-8.49048874 35.17632706 -8.49098724 34.30504669 -8.49150085 33.40736389 C-8.48916648 31.57086906 -8.47947558 29.73437065 -8.46289062 27.89794922 C-8.43925993 25.08882027 -8.44233928 22.28063893 -8.44897461 19.47143555 C-8.4433986 17.68432052 -8.43628921 15.89720948 -8.42749023 14.11010742 C-8.42840164 13.27148666 -8.42931305 12.43286591 -8.43025208 11.5688324 C-8.42072006 10.7844429 -8.41118805 10.00005341 -8.40136719 9.19189453 C-8.3967598 8.5052623 -8.3921524 7.81863007 -8.3874054 7.1111908 C-8.07581429 4.76146379 -7.36104419 3.16148222 -6.12670898 1.14526367 C-3.83846973 0.00114404 -2.54329201 0.01291912 0 0 Z M3.87329102 11.14526367 C3.87329102 20.38526367 3.87329102 29.62526367 3.87329102 39.14526367 C12.78329102 39.14526367 21.69329102 39.14526367 30.87329102 39.14526367 C30.87329102 29.90526367 30.87329102 20.66526367 30.87329102 11.14526367 C21.96329102 11.14526367 13.05329102 11.14526367 3.87329102 11.14526367 Z " fill="#000000" transform="translate(102.126708984375,228.854736328125)"/>
<path d="M0 0 C0.8510582 -0.00637985 1.70211639 -0.0127597 2.57896423 -0.01933289 C3.9602224 -0.02100212 3.9602224 -0.02100212 5.36938477 -0.02270508 C6.78611229 -0.02769768 6.78611229 -0.02769768 8.23146057 -0.03279114 C10.23128776 -0.03785927 12.23112343 -0.0401995 14.23095703 -0.04003906 C17.2948191 -0.04222493 20.35832086 -0.06038015 23.42211914 -0.0793457 C25.36287311 -0.08227973 27.3036288 -0.08426446 29.24438477 -0.08520508 C30.16319931 -0.09239059 31.08201385 -0.09957611 32.02867126 -0.10697937 C33.3099868 -0.10236443 33.3099868 -0.10236443 34.6171875 -0.09765625 C35.36838364 -0.09908127 36.11957977 -0.10050629 36.89353943 -0.10197449 C38.87329102 0.14526367 38.87329102 0.14526367 41.87329102 2.14526367 C43.19020781 6.09601406 43.05566383 9.89225729 43.07641602 14.01245117 C43.08211609 14.88418976 43.08781616 15.75592834 43.09368896 16.65408325 C43.10313284 18.49829903 43.10967052 20.34253164 43.11352539 22.18676758 C43.12323035 25.00266053 43.15425887 27.81782326 43.18579102 30.63354492 C43.19232145 32.42650934 43.19757176 34.21947898 43.20141602 36.01245117 C43.21376282 36.85218475 43.22610962 37.69191833 43.23883057 38.55709839 C43.22573835 42.00680967 42.95961192 44.85262164 41.97973633 48.17456055 C38.46482542 51.46296583 34.47589969 50.85820962 29.84204102 50.80932617 C28.85457886 50.8141098 27.8671167 50.81889343 26.84973145 50.82382202 C24.76170255 50.82722494 22.67362066 50.8179952 20.58569336 50.79711914 C17.38478092 50.77035973 14.18737529 50.79685432 10.98657227 50.82885742 C8.95922075 50.82555339 6.93187143 50.81914731 4.90454102 50.80932617 C3.94511597 50.81944733 2.98569092 50.82956848 1.99719238 50.83999634 C-4.50845971 50.72492168 -4.50845971 50.72492168 -7.23095703 48.17236328 C-8.44663047 44.06412261 -8.53693831 40.3122845 -8.48999023 36.04760742 C-8.49048874 35.17632706 -8.49098724 34.30504669 -8.49150085 33.40736389 C-8.48916648 31.57086906 -8.47947558 29.73437065 -8.46289062 27.89794922 C-8.43925993 25.08882027 -8.44233928 22.28063893 -8.44897461 19.47143555 C-8.4433986 17.68432052 -8.43628921 15.89720948 -8.42749023 14.11010742 C-8.42840164 13.27148666 -8.42931305 12.43286591 -8.43025208 11.5688324 C-8.42072006 10.7844429 -8.41118805 10.00005341 -8.40136719 9.19189453 C-8.3967598 8.5052623 -8.3921524 7.81863007 -8.3874054 7.1111908 C-8.07581429 4.76146379 -7.36104419 3.16148222 -6.12670898 1.14526367 C-3.83846973 0.00114404 -2.54329201 0.01291912 0 0 Z M3.87329102 11.14526367 C3.87329102 20.38526367 3.87329102 29.62526367 3.87329102 39.14526367 C12.78329102 39.14526367 21.69329102 39.14526367 30.87329102 39.14526367 C30.87329102 29.90526367 30.87329102 20.66526367 30.87329102 11.14526367 C21.96329102 11.14526367 13.05329102 11.14526367 3.87329102 11.14526367 Z " fill="#000000" transform="translate(102.126708984375,160.854736328125)"/>
<path d="M0 0 C0.8510582 -0.00637985 1.70211639 -0.0127597 2.57896423 -0.01933289 C3.9602224 -0.02100212 3.9602224 -0.02100212 5.36938477 -0.02270508 C6.78611229 -0.02769768 6.78611229 -0.02769768 8.23146057 -0.03279114 C10.23128776 -0.03785927 12.23112343 -0.0401995 14.23095703 -0.04003906 C17.2948191 -0.04222493 20.35832086 -0.06038015 23.42211914 -0.0793457 C25.36287311 -0.08227973 27.3036288 -0.08426446 29.24438477 -0.08520508 C30.16319931 -0.09239059 31.08201385 -0.09957611 32.02867126 -0.10697937 C33.3099868 -0.10236443 33.3099868 -0.10236443 34.6171875 -0.09765625 C35.36838364 -0.09908127 36.11957977 -0.10050629 36.89353943 -0.10197449 C38.87329102 0.14526367 38.87329102 0.14526367 41.87329102 2.14526367 C43.19020781 6.09601406 43.05566383 9.89225729 43.07641602 14.01245117 C43.08211609 14.88418976 43.08781616 15.75592834 43.09368896 16.65408325 C43.10313284 18.49829903 43.10967052 20.34253164 43.11352539 22.18676758 C43.12323035 25.00266053 43.15425887 27.81782326 43.18579102 30.63354492 C43.19232145 32.42650934 43.19757176 34.21947898 43.20141602 36.01245117 C43.21376282 36.85218475 43.22610962 37.69191833 43.23883057 38.55709839 C43.22573835 42.00680967 42.95961192 44.85262164 41.97973633 48.17456055 C38.46482542 51.46296583 34.47589969 50.85820962 29.84204102 50.80932617 C28.85457886 50.8141098 27.8671167 50.81889343 26.84973145 50.82382202 C24.76170255 50.82722494 22.67362066 50.8179952 20.58569336 50.79711914 C17.38478092 50.77035973 14.18737529 50.79685432 10.98657227 50.82885742 C8.95922075 50.82555339 6.93187143 50.81914731 4.90454102 50.80932617 C3.94511597 50.81944733 2.98569092 50.82956848 1.99719238 50.83999634 C-4.51348705 50.72483275 -4.51348705 50.72483275 -7.23095703 48.15649414 C-8.42856086 44.13053457 -8.53743317 40.48230267 -8.48999023 36.30151367 C-8.49048874 35.45480103 -8.49098724 34.60808838 -8.49150085 33.73571777 C-8.4891666 31.95049689 -8.47947641 30.16527232 -8.46289062 28.38012695 C-8.43928812 25.65440301 -8.44233591 22.92965772 -8.44897461 20.20385742 C-8.44339753 18.46557037 -8.43628746 16.72728741 -8.42749023 14.98901367 C-8.42840164 14.17742798 -8.42931305 13.36584229 -8.43025208 12.52966309 C-8.37794285 8.33541921 -8.20026085 4.91252895 -6.12670898 1.14526367 C-3.83846973 0.00114404 -2.54329201 0.01291912 0 0 Z M3.87329102 11.14526367 C3.87329102 20.38526367 3.87329102 29.62526367 3.87329102 39.14526367 C12.78329102 39.14526367 21.69329102 39.14526367 30.87329102 39.14526367 C30.87329102 29.90526367 30.87329102 20.66526367 30.87329102 11.14526367 C21.96329102 11.14526367 13.05329102 11.14526367 3.87329102 11.14526367 Z " fill="#000000" transform="translate(102.126708984375,92.854736328125)"/>
<path d="M0 0 C26.73 0 53.46 0 81 0 C81 3.96 81 7.92 81 12 C54.27 12 27.54 12 0 12 C0 8.04 0 4.08 0 0 Z " fill="#000000" transform="translate(176,316)"/>
<path d="M0 0 C26.73 0 53.46 0 81 0 C81 3.96 81 7.92 81 12 C54.27 12 27.54 12 0 12 C0 8.04 0 4.08 0 0 Z " fill="#000000" transform="translate(176,248)"/>
<path d="M0 0 C26.73 0 53.46 0 81 0 C81 3.63 81 7.26 81 11 C54.27 11 27.54 11 0 11 C0 7.37 0 3.74 0 0 Z " fill="#000000" transform="translate(176,181)"/>
<path d="M0 0 C26.73 0 53.46 0 81 0 C81 3.63 81 7.26 81 11 C54.27 11 27.54 11 0 11 C0 7.37 0 3.74 0 0 Z " fill="#000000" transform="translate(176,113)"/>
</svg>
