<?xml version="1.0" encoding="UTF-8"?>
<svg version="1.1" xmlns="http://www.w3.org/2000/svg" width="512" height="512">
<path d="M0 0 C0.89235352 0.53294678 1.78470703 1.06589355 2.70410156 1.61499023 C3.72407227 2.21456543 4.74404297 2.81414062 5.79492188 3.43188477 C6.88385742 4.08914551 7.97279297 4.74640625 9.09472656 5.42358398 C10.24854129 6.10707817 11.4031796 6.78918375 12.55859375 7.4699707 C14.96052765 8.88657849 17.35880321 10.30911048 19.75488281 11.7355957 C25.33217902 15.04791504 30.96791382 18.2589165 36.59472656 21.48608398 C45.03053393 26.34925921 53.45034718 31.23921869 61.84472656 36.17358398 C62.77704102 36.71901855 63.70935547 37.26445312 64.66992188 37.82641602 C65.52166992 38.32898926 66.37341797 38.8315625 67.25097656 39.34936523 C68.36956055 40.00739136 68.36956055 40.00739136 69.51074219 40.67871094 C71.61159183 42.03313251 73.06943926 43.14372142 73.98069763 45.51834106 C74.49222872 48.81034817 74.31991747 52.03159117 74.16918945 55.3449707 C74.10980608 56.89658839 74.05176895 58.44825803 73.99488831 59.99996948 C73.96426363 60.82054714 73.93363895 61.6411248 73.90208626 62.48656845 C73.72661359 67.77788581 73.65465356 73.07171854 73.57451725 78.36520195 C73.49865808 83.00546365 73.37956395 87.63627961 73.16186523 92.2722168 C71.41873093 111.94513018 71.41873093 111.94513018 77.57955933 129.83984375 C83.18739387 134.65745505 89.51758307 137.36398561 96.4392395 139.79840088 C100.23126516 141.18533585 103.35426277 143.02568768 106.77832031 145.15795898 C108.77944712 146.30930534 110.78074228 147.46035917 112.78222656 148.61108398 C115.98459429 150.45779796 119.18627993 152.30568838 122.38769531 154.15405273 C124.28827093 155.25121462 126.18927693 156.34763149 128.09082031 157.44311523 C130.49081145 158.82758501 132.88713176 160.21816591 135.28222656 161.61108398 C135.96792725 162.00521484 136.65362793 162.3993457 137.36010742 162.80541992 C143.12748214 166.17525615 143.12748214 166.17525615 145.34472656 168.86108398 C145.66698705 171.79542045 145.80595087 174.52167642 145.81225586 177.45996094 C145.82554428 178.33833618 145.8388327 179.21671143 145.8525238 180.1217041 C145.89127551 183.03101574 145.90682263 185.9398277 145.91894531 188.84936523 C145.93366178 190.87094743 145.94854132 192.89252844 145.96357727 194.91410828 C145.99058849 199.15517371 146.00412167 203.39606352 146.01049805 207.63720703 C146.02136447 213.06859074 146.08305323 218.49811511 146.15721416 223.92895222 C146.20561619 228.10605631 146.21802585 232.28271289 146.22056007 236.46007347 C146.22778944 238.4619984 146.24825685 240.46392131 146.2822628 242.46557045 C146.32625893 245.26978877 146.31953848 248.06961992 146.30053711 250.87402344 C146.32458618 251.69865585 146.34863525 252.52328827 146.37341309 253.37290955 C146.30202098 256.95630108 146.14158347 259.02579483 143.60752106 261.68207455 C141.57919654 263.22523402 139.54142887 264.57164405 137.34472656 265.86108398 C136.33297363 266.49199951 135.3212207 267.12291504 134.27880859 267.77294922 C133.31313965 268.31636963 132.3474707 268.85979004 131.35253906 269.41967773 C129.69569092 270.3584375 129.69569092 270.3584375 128.00537109 271.31616211 C126.82683441 271.97698991 125.64828595 272.63779669 124.46972656 273.29858398 C123.23482082 273.99650098 122.00028936 274.69508061 120.76611328 275.39428711 C118.86166178 276.4732272 116.95703939 277.55184546 115.05130005 278.62850952 C108.49983299 282.33095957 101.98446663 286.09444398 95.46972656 289.86108398 C93.84901245 290.79307617 93.84901245 290.79307617 92.19555664 291.74389648 C87.7246695 294.31594991 83.26253349 296.89409347 78.85644531 299.57592773 C78.21497559 299.96071289 77.57350586 300.34549805 76.91259766 300.74194336 C75.32720532 301.69626575 73.75136917 302.66641994 72.17675781 303.63842773 C68.42420528 305.25849524 66.42471266 305.47140977 62.34472656 304.86108398 C58.55401631 303.14085478 55.06859876 300.986651 51.53222656 298.79858398 C49.38961331 297.50979905 47.24636134 296.22207552 45.10253906 294.93530273 C43.99426758 294.26418457 42.88599609 293.59306641 41.74414062 292.90161133 C35.09286579 288.90912676 28.34671496 285.07971168 21.61425781 281.22631836 C16.7333299 278.42408453 11.87931604 275.59975509 7.10253906 272.62280273 C6.32064209 272.14101563 5.53874512 271.65922852 4.7331543 271.1628418 C3.31405664 270.28320589 1.90384116 269.38899446 0.50512695 268.47729492 C-3.05634164 266.25054379 -3.05634164 266.25054379 -7.11621094 266.34936523 C-7.95410156 266.84823242 -8.79199219 267.34709961 -9.65527344 267.86108398 C-10.84845935 268.49285198 -12.04256243 269.12288918 -13.23730469 269.75170898 C-14.64959862 270.53432204 -16.05960383 271.32107404 -17.46777344 272.11108398 C-18.63433472 272.76210083 -18.63433472 272.76210083 -19.82446289 273.42626953 C-26.37430089 277.10081902 -32.86135923 280.88002102 -39.34277344 284.67358398 C-42.40382566 286.46040887 -45.46522331 288.2466397 -48.52685547 290.0324707 C-50.64443547 291.27023207 -52.75994064 292.51154877 -54.87353516 293.75610352 C-58.00204799 295.59520347 -61.13997746 297.41719594 -64.28027344 299.23608398 C-65.23377686 299.80174072 -66.18728027 300.36739746 -67.16967773 300.95019531 C-75.82417268 305.92600404 -75.82417268 305.92600404 -80.65527344 304.86108398 C-83.75050416 303.5425577 -86.62270897 301.92345308 -89.53027344 300.23608398 C-90.39958496 299.74462891 -91.26889648 299.25317383 -92.16455078 298.74682617 C-95.004205 297.13408367 -97.83094042 295.50049568 -100.65527344 293.86108398 C-102.06969727 293.04269043 -102.06969727 293.04269043 -103.51269531 292.20776367 C-108.45301705 289.34519435 -113.38327191 286.46588336 -118.30761719 283.57592773 C-126.2433948 278.92228491 -134.21738801 274.33535603 -142.19091797 269.74682617 C-143.74141846 268.85398926 -143.74141846 268.85398926 -145.32324219 267.94311523 C-146.23356201 267.41951416 -147.14388184 266.89591309 -148.08178711 266.35644531 C-148.9310376 265.86297607 -149.78028809 265.36950684 -150.65527344 264.86108398 C-151.54899658 264.38501709 -152.44271973 263.9089502 -153.36352539 263.41845703 C-156.03057056 261.60604826 -156.57216532 260.8714426 -157.65527344 257.86108398 C-157.84629395 255.03530252 -157.9284882 252.30925364 -157.9140625 249.48413086 C-157.91756714 248.64141129 -157.92107178 247.79869171 -157.92468262 246.93043518 C-157.93347987 244.14681748 -157.92765785 241.36345424 -157.92089844 238.57983398 C-157.92224566 236.64457144 -157.92418668 234.70930923 -157.92669678 232.77404785 C-157.92964532 228.71887997 -157.92535903 224.66380022 -157.91601562 220.60864258 C-157.90462128 215.40986872 -157.91118218 210.21130137 -157.92316055 205.0125351 C-157.9303864 201.01656538 -157.92808788 197.02064465 -157.92290497 193.02467346 C-157.92157048 191.10771154 -157.92320916 189.19074518 -157.92786407 187.27378845 C-157.93294117 184.59508476 -157.92520239 181.91671586 -157.9140625 179.23803711 C-157.91811096 178.44518814 -157.92215942 177.65233917 -157.92633057 176.83546448 C-157.8734837 169.97853687 -157.8734837 169.97853687 -155.65527344 166.86108398 C-153.45410156 165.26806641 -153.45410156 165.26806641 -150.68652344 163.71655273 C-149.65325928 163.12962646 -148.61999512 162.5427002 -147.55541992 161.93798828 C-146.43337158 161.31448486 -145.31132324 160.69098145 -144.15527344 160.04858398 C-142.9854367 159.38802653 -141.81625663 158.72630491 -140.64770508 158.06347656 C-138.2115264 156.6828531 -135.77257401 155.30732741 -133.33154297 153.93530273 C-127.55905237 150.68536178 -121.82800232 147.36372786 -116.09277344 144.04858398 C-114.60003906 143.18946411 -114.60003906 143.18946411 -113.07714844 142.31298828 C-111.1189695 141.18495563 -109.17098829 140.03898903 -107.2348938 138.87345886 C-104.67722417 137.37708754 -102.08436195 136.14522162 -99.36935425 134.96035767 C-91.30511338 131.39387636 -91.30511338 131.39387636 -85.70090675 124.945467 C-84.25032252 119.49048131 -84.65624238 113.92588167 -84.91699219 108.34155273 C-84.93645428 106.55185238 -84.94777622 104.76204683 -84.95137024 102.97224426 C-84.97979862 98.28375551 -85.10620894 93.60329378 -85.25756836 88.9173584 C-85.48070354 81.40460778 -85.5412251 73.88814755 -85.62500954 66.37282753 C-85.66639731 63.75419132 -85.74208921 61.13841705 -85.82487488 58.52079773 C-85.86071425 56.915728 -85.89623844 55.3106512 -85.93139648 53.70556641 C-85.97900368 52.61998192 -85.97900368 52.61998192 -86.02757263 51.51246643 C-86.08430019 47.92420738 -85.76487584 46.03121329 -83.80125427 42.98320007 C-81.38018028 40.58905004 -79.02943362 39.05494572 -76.05371094 37.40014648 C-74.3781311 36.45691528 -74.3781311 36.45691528 -72.66870117 35.49462891 C-71.45592205 34.82505938 -70.24311202 34.15554582 -69.03027344 33.48608398 C-67.77319109 32.78192676 -66.51677118 32.07658575 -65.26098633 31.37011719 C-62.67163997 29.91403798 -60.0799753 28.46221655 -57.48681641 27.01293945 C-51.65673148 23.74715929 -45.87648562 20.39565968 -40.09277344 17.04858398 C-39.02623535 16.4350708 -37.95969727 15.82155762 -36.86083984 15.18945312 C-31.88774946 12.32668216 -26.9336404 9.43966932 -22.01855469 6.47827148 C-20.71543335 5.70060425 -20.71543335 5.70060425 -19.38598633 4.90722656 C-17.78869083 3.95193036 -16.19746225 2.98637765 -14.61401367 2.00830078 C-13.91091064 1.5897583 -13.20780762 1.17121582 -12.48339844 0.73999023 C-11.58476074 0.19193726 -11.58476074 0.19193726 -10.66796875 -0.3671875 C-6.85310503 -1.82992212 -3.72310967 -1.59693882 0 0 Z M-14.40527344 19.92358398 C-15.1802417 20.36750488 -15.95520996 20.81142578 -16.75366211 21.26879883 C-19.39495747 22.78705836 -22.02487547 24.3240303 -24.65527344 25.86108398 C-26.67700681 27.02974853 -28.69915592 28.19769411 -30.72167969 29.36499023 C-41.12266831 35.38503036 -51.481609 41.46280284 -61.65527344 47.86108398 C-58.20651239 50.74510795 -54.73110886 53.09103113 -50.81542969 55.29467773 C-49.11205444 56.25978271 -49.11205444 56.25978271 -47.37426758 57.24438477 C-46.155615 57.92943601 -44.93677978 58.61416244 -43.71777344 59.29858398 C-41.19530958 60.71888854 -38.67452209 62.14211554 -36.15527344 63.56811523 C-35.20800133 64.10405304 -35.20800133 64.10405304 -34.24159241 64.65081787 C-30.14289438 66.98182659 -26.10530091 69.39516561 -22.09277344 71.87280273 C-21.09624756 72.48389893 -20.09972168 73.09499512 -19.07299805 73.72460938 C-17.20519365 74.87691452 -15.34614807 76.04357066 -13.49731445 77.22607422 C-12.24712524 77.99286499 -12.24712524 77.99286499 -10.97167969 78.77514648 C-10.25439697 79.22841309 -9.53711426 79.68167969 -8.7980957 80.14868164 C-6.62243112 81.0933187 -6.62243112 81.0933187 -4.24609375 80.19165039 C-1.41906162 78.73977279 1.35777016 77.24049878 4.11425781 75.65795898 C5.80276855 74.69116211 5.80276855 74.69116211 7.52539062 73.70483398 C8.7360749 73.00704274 9.94668532 72.30912333 11.15722656 71.61108398 C12.40028165 70.89735248 13.64344698 70.18381297 14.88671875 69.47045898 C26.74115541 62.66115788 38.55157066 55.77589389 50.34472656 48.86108398 C47.5673531 45.87223131 44.90543666 43.8505749 41.32910156 41.90014648 C40.33612061 41.35253662 39.34313965 40.80492676 38.32006836 40.24072266 C37.25570557 39.66169189 36.19134277 39.08266113 35.09472656 38.48608398 C24.94569918 32.89774737 14.91271997 27.1543318 4.96289062 21.21704102 C4.02026367 20.66000488 3.07763672 20.10296875 2.10644531 19.52905273 C1.28104248 19.03687256 0.45563965 18.54469238 -0.39477539 18.03759766 C-6.23248878 14.99926297 -8.9647811 16.71906631 -14.40527344 19.92358398 Z M-69.65527344 61.86108398 C-69.9573828 70.19725787 -70.18788548 78.53112405 -70.32883167 86.87142944 C-70.39650798 90.74511857 -70.48814158 94.61504807 -70.63598633 98.48657227 C-70.77796384 102.22816322 -70.85509718 105.96615812 -70.8886776 109.7102356 C-70.91257927 111.13323642 -70.95927021 112.55605392 -71.02976418 113.97750854 C-71.24740868 118.5508835 -71.18607925 122.52432418 -69.65527344 126.86108398 C-65.7006459 130.55234315 -61.57042947 132.58693434 -56.65527344 134.86108398 C-54.60642651 136.03199888 -52.56675657 137.21931371 -50.54199219 138.43139648 C-47.36317761 140.25899279 -44.1801151 142.07901296 -40.99633789 143.89794922 C-35.22336964 147.20399835 -29.49044063 150.54905952 -23.81152344 154.01342773 C-22.72395752 154.67004395 -21.6363916 155.32666016 -20.51586914 156.00317383 C-18.43771207 157.26090896 -16.36810142 158.53290103 -14.30834961 159.82055664 C-13.37482666 160.38178223 -12.44130371 160.94300781 -11.47949219 161.52124023 C-10.66569092 162.02276611 -9.85188965 162.52429199 -9.01342773 163.04101562 C-6.65864453 164.10746117 -6.65864453 164.10746117 -4.20996094 163.20532227 C-1.43021849 161.74266344 1.32066748 160.25920679 4.04394531 158.69311523 C5.15882324 158.0540625 6.27370117 157.41500977 7.42236328 156.7565918 C8.62572235 156.06237945 9.82900841 155.36804054 11.03222656 154.67358398 C12.27443802 153.95947529 13.51679027 153.24561146 14.75927734 152.53198242 C17.3313393 151.05390118 19.90219098 149.5737443 22.47216797 148.09204102 C25.6278311 146.27305485 28.78653419 144.45944074 31.94667053 142.64823914 C34.87215808 140.97116281 37.79585946 139.29098386 40.71972656 137.61108398 C41.79955811 136.99209229 42.87938965 136.37310059 43.99194336 135.73535156 C45.00297119 135.15293701 46.01399902 134.57052246 47.05566406 133.97045898 C47.93528809 133.46482422 48.81491211 132.95918945 49.72119141 132.43823242 C51.01984131 131.65754395 51.01984131 131.65754395 52.34472656 130.86108398 C53.37478821 130.30098633 54.40484985 129.74088867 55.46612549 129.16381836 C58.59378276 127.14181501 58.59378276 127.14181501 59.06625366 123.91241455 C59.04626816 122.19366119 59.04626816 122.19366119 59.02587891 120.44018555 C59.02542572 119.13913879 59.02497253 117.83809204 59.02450562 116.49761963 C58.99386768 115.08230202 58.96257173 113.66699853 58.93066406 112.25170898 C58.91946881 110.8001277 58.91093017 109.3485237 58.90493774 107.89691162 C58.88206408 104.08226568 58.82315713 100.2689977 58.75671387 96.45489502 C58.69525757 92.56053306 58.66791582 88.66594768 58.63769531 84.77124023 C58.57340932 77.13389429 58.47105155 69.49768244 58.34472656 61.86108398 C56.42692566 62.81299006 54.50992488 63.76650827 52.59326172 64.72070312 C51.52564606 65.25151993 50.4580304 65.78233673 49.35806274 66.32923889 C45.71822136 68.17957116 42.21194524 70.18689167 38.71972656 72.29858398 C37.28555337 73.15396343 35.85059996 74.00803554 34.41503906 74.86108398 C33.23409668 75.56297852 33.23409668 75.56297852 32.02929688 76.27905273 C25.43932594 80.16255689 18.79653789 83.95643659 12.16650391 87.77099609 C10.560896 88.69537476 10.560896 88.69537476 8.92285156 89.63842773 C7.96797852 90.18748779 7.01310547 90.73654785 6.02929688 91.30224609 C4.23807155 92.3423492 2.46616428 93.41644629 0.71533203 94.52319336 C-2.85355743 96.53735548 -5.74456817 96.73976014 -9.65527344 95.86108398 C-14.15086612 93.85541734 -18.3229798 91.33986518 -22.53027344 88.79858398 C-23.75792247 88.07458636 -24.98661884 87.35236201 -26.21630859 86.63183594 C-28.7594914 85.13894223 -31.29721757 83.63736102 -33.83105469 82.12866211 C-38.7330661 79.21454302 -43.67140136 76.36422982 -48.61279297 73.51757812 C-50.84508957 72.2314321 -53.07533008 70.941709 -55.30322266 69.64794922 C-56.31400879 69.06215088 -57.32479492 68.47635254 -58.36621094 67.87280273 C-59.24583496 67.36193115 -60.12545898 66.85105957 -61.03173828 66.32470703 C-63.86424793 64.74450087 -66.75068018 63.30366019 -69.65527344 61.86108398 Z M-85.32714844 143.86889648 C-86.45588379 144.51971191 -87.58461914 145.17052734 -88.74755859 145.84106445 C-89.96695028 146.55580931 -91.18618519 147.2708217 -92.40527344 147.98608398 C-93.65405189 148.71090803 -94.90324268 149.4350221 -96.15283203 150.15844727 C-98.71933412 151.64626562 -101.28271772 153.13926134 -103.84375 154.63647461 C-106.90647528 156.42626017 -109.97565707 158.20447948 -113.04870605 159.97647095 C-115.79443569 161.5597717 -118.53729562 163.14802202 -121.28027344 164.73608398 C-122.8073291 165.61804443 -122.8073291 165.61804443 -124.36523438 166.51782227 C-125.76563965 167.33355713 -125.76563965 167.33355713 -127.19433594 168.16577148 C-128.01111816 168.63998535 -128.82790039 169.11419922 -129.66943359 169.6027832 C-131.7764104 170.83633615 -131.7764104 170.83633615 -133.65527344 172.86108398 C-126.88914194 177.56405796 -119.86963052 181.638923 -112.65527344 185.61108398 C-104.98473089 189.86910096 -97.33661689 194.15297532 -89.78027344 198.61108398 C-89.09191406 199.01681641 -88.40355469 199.42254883 -87.69433594 199.84057617 C-84.96876612 201.45609066 -82.29221659 203.10312189 -79.65527344 204.86108398 C-74.83050502 204.61256128 -70.93707796 202.01813893 -66.84277344 199.67358398 C-65.69035156 199.02341309 -65.69035156 199.02341309 -64.51464844 198.36010742 C-54.76761417 192.83601809 -45.08747338 187.18979509 -35.43652344 181.49975586 C-33.54458168 180.38505141 -31.64857405 179.2772254 -29.74902344 178.17553711 C-28.84152344 177.64379883 -27.93402344 177.11206055 -26.99902344 176.56420898 C-26.18626953 176.09144531 -25.37351562 175.61868164 -24.53613281 175.1315918 C-22.51562854 173.99083235 -22.51562854 173.99083235 -21.65527344 171.86108398 C-22.60273438 171.33490479 -22.60273438 171.33490479 -23.56933594 170.7980957 C-63.19790226 148.76398471 -63.19790226 148.76398471 -73.20898438 142.18212891 C-78.03947803 139.57356592 -80.97038717 141.33506258 -85.32714844 143.86889648 Z M58.74316406 143.83374023 C57.62458008 144.47956055 56.50599609 145.12538086 55.35351562 145.79077148 C54.1421642 146.50155834 52.93090321 147.21249934 51.71972656 147.92358398 C50.47768879 148.64445553 49.23516947 149.36449798 47.9921875 150.08374023 C45.41215375 151.57824775 42.83492133 153.0774257 40.25976562 154.58032227 C36.41796457 156.82107384 32.56650037 159.04475755 28.71191406 161.26342773 C28.10773651 161.61123795 27.50355896 161.95904816 26.881073 162.31739807 C25.69654511 162.99928825 24.51200557 163.6811582 23.32745361 164.36300659 C18.99701623 166.85740503 14.67110679 169.35965751 10.34472656 171.86108398 C13.30509825 175.08173233 16.27698496 177.1616391 20.08691406 179.29467773 C21.22572021 179.93800049 22.36452637 180.58132324 23.5378418 181.24414062 C24.76498473 181.92922739 25.99228293 182.61403611 27.21972656 183.29858398 C29.75154058 184.7197618 32.28098323 186.14511126 34.80957031 187.57202148 C35.44417679 187.92951981 36.07878326 188.28701813 36.73262024 188.65534973 C40.83767007 190.97784136 44.88696181 193.37654237 48.91113281 195.83764648 C49.90709473 196.44423096 50.90305664 197.05081543 51.92919922 197.67578125 C53.7941339 198.8182652 55.65224988 199.9719751 57.50244141 201.13818359 C58.33598145 201.64615479 59.16952148 202.15412598 60.02832031 202.67749023 C60.74560303 203.12552002 61.46288574 203.5735498 62.2019043 204.03515625 C65.04207982 205.12987128 66.45891929 204.77458879 69.34472656 203.86108398 C71.16425297 202.99089805 72.94958543 202.0472631 74.70410156 201.05249023 C75.72947021 200.47499023 76.75483887 199.89749023 77.8112793 199.30249023 C78.89481689 198.68245117 79.97835449 198.06241211 81.09472656 197.42358398 C82.20984619 196.79194336 83.32496582 196.16030273 84.47387695 195.50952148 C92.90250536 190.72194887 101.28748062 185.86224525 109.60986328 180.89233398 C111.25645091 179.91355744 112.91169783 178.94939161 114.56738281 177.98608398 C115.94216797 177.18170898 115.94216797 177.18170898 117.34472656 176.36108398 C118.10785156 175.91764648 118.87097656 175.47420898 119.65722656 175.01733398 C121.49968903 173.95537802 121.49968903 173.95537802 122.34472656 171.86108398 C120.81332031 171.0219043 120.81332031 171.0219043 119.25097656 170.16577148 C108.11077684 164.03279837 97.10512048 157.68523086 86.13378906 151.25561523 C84.72081543 150.4311792 84.72081543 150.4311792 83.27929688 149.59008789 C81.20658026 148.36887499 79.14434067 147.12979579 77.08984375 145.87817383 C75.4951123 144.91645264 75.4951123 144.91645264 73.86816406 143.93530273 C72.42449463 143.05297974 72.42449463 143.05297974 70.95166016 142.15283203 C65.99996878 139.69924531 63.17825899 141.24967994 58.74316406 143.83374023 Z M-141.65527344 186.86108398 C-141.65527344 208.31108398 -141.65527344 229.76108398 -141.65527344 251.86108398 C-124.72029027 261.63302853 -124.72029027 261.63302853 -107.78027344 271.39624023 C-106.73613281 271.99758789 -105.69199219 272.59893555 -104.61621094 273.21850586 C-102.58011354 274.39100786 -100.54363365 275.56284582 -98.50683594 276.73413086 C-97.48332031 277.32387695 -96.45980469 277.91362305 -95.40527344 278.52124023 C-94.43847656 279.07440918 -93.47167969 279.62757813 -92.47558594 280.19750977 C-90.59040189 281.30949419 -88.73022012 282.46495643 -86.89746094 283.66137695 C-82.06028866 286.90200759 -82.06028866 286.90200759 -76.48339844 287.99389648 C-72.90284151 286.55969551 -69.66973333 284.76680757 -66.40527344 282.73608398 C-64.90100416 281.82567641 -63.39572657 280.91693356 -61.88964844 280.00952148 C-61.06271484 279.50904297 -60.23578125 279.00856445 -59.38378906 278.49291992 C-54.18054132 275.38102766 -48.91311598 272.37947507 -43.65527344 269.36108398 C-40.48552295 267.54023732 -37.32941393 265.72056451 -34.2175293 263.80200195 C-31.58201574 262.25114173 -29.00148966 261.27114725 -26.0949707 260.33032227 C-20.98773619 258.44588401 -16.73358218 256.51608745 -13.65527344 251.86108398 C-10.94571234 241.95677746 -11.97812207 231.19270395 -12.48797607 221.04290771 C-12.66302893 217.18960386 -12.73975533 213.33441868 -12.82519531 209.47827148 C-13.00664569 201.93403607 -13.29602715 194.39917042 -13.65527344 186.86108398 C-17.27665545 188.2790056 -20.62091332 189.8626256 -24.01464844 191.76733398 C-25.03969482 192.3414502 -26.06474121 192.91556641 -27.12084961 193.50708008 C-28.20470947 194.11890137 -29.28856934 194.73072266 -30.40527344 195.36108398 C-31.52329346 195.98966309 -32.64131348 196.61824219 -33.79321289 197.26586914 C-40.17722361 200.86550608 -46.53288828 204.50809094 -52.84277344 208.23608398 C-53.51187744 208.63037598 -54.18098145 209.02466797 -54.87036133 209.4309082 C-58.12343287 211.35158542 -61.36389829 213.29063273 -64.59277344 215.25170898 C-65.84256899 215.99684368 -67.09255959 216.74165134 -68.34277344 217.48608398 C-69.95732422 218.46448242 -69.95732422 218.46448242 -71.60449219 219.46264648 C-75.09790786 221.06398171 -76.85943352 221.43548599 -80.65527344 220.86108398 C-83.42702904 219.72640251 -85.95498239 218.25822921 -88.53027344 216.73608398 C-89.29911865 216.29522461 -90.06796387 215.85436523 -90.86010742 215.40014648 C-93.46640634 213.90038511 -96.06077106 212.38115169 -98.65527344 210.86108398 C-100.62751986 209.71714794 -102.60019015 208.57394244 -104.57324219 207.43139648 C-112.36900916 202.90666766 -120.15084283 198.3589153 -127.89355469 193.74389648 C-128.6830249 193.27467773 -129.47249512 192.80545898 -130.28588867 192.32202148 C-131.74481476 191.45361687 -133.20149467 190.58142356 -134.65551758 189.70483398 C-137.92765413 187.57618562 -137.92765413 187.57618562 -141.65527344 186.86108398 Z M2.34472656 186.86108398 C1.78465147 195.09213464 1.3605064 203.31508247 1.10123444 211.56055641 C0.97665421 215.39191883 0.80859485 219.21014976 0.53417969 223.03393555 C-1.15084898 239.67359125 -1.15084898 239.67359125 4.53814697 254.53991699 C10.20681207 259.170308 16.59174714 262.00078926 23.36657715 264.6552124 C27.30936894 266.2516738 30.84061438 268.30690041 34.46191406 270.51733398 C36.71383525 271.79978401 38.96640732 273.08109199 41.21972656 274.36108398 C43.50939967 275.66209328 45.79847357 276.96415777 48.08691406 278.26733398 C49.14749023 278.86803711 50.20806641 279.46874023 51.30078125 280.08764648 C54.99205272 282.23822364 58.5753326 284.54141058 62.13037109 286.90991211 C65.02613607 288.15378205 66.36906292 287.82340313 69.34472656 286.86108398 C71.88372785 285.69430505 71.88372785 285.69430505 74.45800781 284.19311523 C75.44712158 283.6363208 76.43623535 283.07952637 77.45532227 282.50585938 C78.51195068 281.9012085 79.5685791 281.29655762 80.65722656 280.67358398 C81.75574951 280.05153076 82.85427246 279.42947754 83.98608398 278.78857422 C99.76433097 269.83403631 99.76433097 269.83403631 115.35479736 260.55940247 C118.34472656 258.86108398 118.34472656 258.86108398 121.46983337 257.53598022 C124.92316862 255.94881822 127.54736282 254.44713565 130.34472656 251.86108398 C132.00107622 246.91843966 131.75116625 242.10224841 131.51660156 236.95874023 C131.49419162 235.51150071 131.47712342 234.06416951 131.46514893 232.61680603 C131.41953759 228.82490275 131.30189775 225.03860392 131.16870117 221.24890137 C131.04546059 217.37495775 130.99103879 213.50009877 130.93066406 209.62475586 C130.80234176 202.03432212 130.59784261 194.44849098 130.34472656 186.86108398 C126.81408445 188.2453576 123.54116677 189.77088224 120.23144531 191.62670898 C118.74717041 192.4574292 118.74717041 192.4574292 117.23291016 193.30493164 C116.17668457 193.90096191 115.12045898 194.49699219 114.03222656 195.11108398 C112.38988037 196.0341333 112.38988037 196.0341333 110.71435547 196.97583008 C100.88491404 202.51851554 91.13136816 208.18822317 81.39941406 213.90014648 C80.08602051 214.66439941 80.08602051 214.66439941 78.74609375 215.4440918 C77.25902913 216.32157482 75.78300032 217.21844732 74.32617188 218.14526367 C70.41080984 220.58781593 67.92305672 221.24296907 63.34472656 220.86108398 C60.74951172 219.7980957 60.74951172 219.7980957 58.13378906 218.29077148 C56.65471069 217.450625 56.65471069 217.450625 55.14575195 216.59350586 C54.09766357 215.98055664 53.0495752 215.36760742 51.96972656 214.73608398 C50.87716553 214.11024414 49.78460449 213.4844043 48.65893555 212.83959961 C45.21270991 210.86029997 41.77822029 208.86237587 38.34472656 206.86108398 C36.13529244 205.58209036 33.92566162 204.30343645 31.71582031 203.02514648 C17.09704831 194.545503 17.09704831 194.545503 11.50439453 191.12280273 C10.60479004 190.57237305 9.70518555 190.02194336 8.77832031 189.45483398 C7.97322021 188.95661133 7.16812012 188.45838867 6.33862305 187.94506836 C4.43012354 186.70187376 4.43012354 186.70187376 2.34472656 186.86108398 Z " fill="#000000" transform="translate(366.6552734375,195.138916015625)"/>
<path d="M0 0 C2.03404742 -0.00543538 4.06809089 -0.01256589 6.10212708 -0.02124023 C11.5686679 -0.03930011 17.03490299 -0.03248069 22.50144839 -0.01972389 C28.24845557 -0.0095152 33.99543857 -0.01901033 39.7424469 -0.02526855 C49.38107961 -0.03251812 59.01958916 -0.02302394 68.65820312 -0.00390625 C79.78062881 0.01790055 90.90276157 0.01077256 102.02518028 -0.01121187 C111.60867607 -0.02939115 121.19208397 -0.03191312 130.77559143 -0.0214572 C136.48502502 -0.01524174 142.19432106 -0.01433375 147.90374565 -0.02760315 C153.26628602 -0.03919942 158.62844974 -0.03106697 163.99094963 -0.00802612 C165.95204545 -0.00276106 167.91317327 -0.00421481 169.87425613 -0.01307678 C184.19205004 -0.07178999 195.15690894 0.7132768 205.93969727 11.15429688 C211.69191868 17.63491877 214.66250267 26.50371381 214.33813477 35.19335938 C212.96282613 45.82074429 209.15267255 53.4904198 201.03735352 60.51757812 C190.84557632 68.19309061 178.47557108 67.79422245 166.24438477 67.75585938 C164.84436808 67.76189541 163.44435742 67.76950998 162.0443573 67.77861023 C156.156333 67.81535098 150.26850751 67.83426351 144.38037109 67.82299805 C140.75583408 67.81711984 137.13207448 67.83552011 133.50769615 67.86888695 C132.1383246 67.87678492 130.76886706 67.87564071 129.39951515 67.86486244 C122.06062769 67.80951807 116.42382772 67.82172671 110.47660828 72.44621277 C109.03735352 73.51757812 109.03735352 73.51757812 107.03735352 73.51757812 C106.34960946 74.84016284 105.69023978 76.17744315 105.03735352 77.51757812 C104.52566872 78.52522059 104.01398392 79.53286306 103.48679352 80.57104015 C101.58702663 85.05934654 101.62088982 89.28360651 101.65881348 94.09968567 C101.65201828 95.51914986 101.65201828 95.51914986 101.64508581 96.9672901 C101.63348718 100.12848106 101.6430988 103.28924682 101.65258789 106.45043945 C101.64848158 108.72093478 101.64302035 110.991428 101.63630676 113.26191711 C101.62458731 118.14714185 101.62209553 123.03225362 101.62666321 127.91749001 C101.63347499 135.64579147 101.61760067 143.37394444 101.5982666 151.10221863 C101.57326175 161.94062482 101.55652044 172.77900026 101.54858398 183.61743164 C101.54807681 184.30467265 101.54756963 184.99191366 101.54704708 185.69998016 C101.54352078 190.5766793 101.54039155 195.45337866 101.53735352 200.33007812 C101.53388539 205.8955894 101.5302358 211.46110048 101.52612305 217.02661133 C101.52562043 217.71210121 101.52511782 218.39759108 101.52459997 219.10385338 C101.51584297 230.55117899 101.49525813 241.99844528 101.46664095 253.44573992 C101.44830181 261.12432817 101.44438645 268.80274659 101.45157623 276.48135149 C101.45310041 281.26407689 101.44229928 286.04671769 101.42819786 290.82942009 C101.42420256 293.04248866 101.42530764 295.25557341 101.4319706 297.46863556 C101.44038709 300.49746933 101.43032153 303.52572063 101.41589355 306.55451965 C101.42623446 307.85771478 101.42623446 307.85771478 101.43678427 309.18723708 C101.35212393 318.35554456 99.10849019 326.37179756 93.20532227 333.47070312 C84.93535692 341.27874248 75.89242538 343.01924598 64.93188477 342.78710938 C55.91852266 342.16331601 49.40989956 338.89257747 42.91625977 332.67773438 C38.42231576 327.5111002 35.9230068 321.52313087 35.89259338 314.67276001 C35.88224564 313.17548622 35.88224564 313.17548622 35.87168884 311.64796448 C35.86776878 310.00681923 35.86776878 310.00681923 35.86376953 308.33251953 C35.85373901 306.60289726 35.85373901 306.60289726 35.84350586 304.83833313 C35.82944171 302.33053271 35.81755202 299.82271939 35.80755806 297.31489944 C35.79117187 293.34786202 35.76814651 289.38089629 35.74266052 285.41390991 C35.67148457 274.13341295 35.61169009 262.85287061 35.56054688 251.57226562 C35.53222444 245.34176665 35.49683362 239.11134701 35.45389313 232.88093126 C35.43153292 229.58489416 35.41416866 226.28894575 35.40344429 222.99284744 C35.3913071 219.31559321 35.36716347 215.63859792 35.34033203 211.96142578 C35.33974289 210.87137741 35.33915375 209.78132904 35.33854675 208.6582489 C35.32882843 207.65442673 35.31911011 206.65060455 35.30909729 205.61636353 C35.30486535 204.74732203 35.30063341 203.87828053 35.29627323 202.98290443 C34.92752847 199.47186956 34.16086256 196.46823962 31.41235352 194.14257812 C27.91174892 193.22136639 24.46321123 193.29355504 21.03735352 194.51757812 C18.30525141 197.4877263 17.66281465 199.44290091 17.6655426 203.442276 C17.6587851 204.43316223 17.65202759 205.42404846 17.64506531 206.44496155 C17.65278458 207.52603683 17.66050385 208.60711212 17.66845703 209.72094727 C17.66469055 210.86453705 17.66092407 212.00812683 17.65704346 213.18637085 C17.6506043 215.67177066 17.65094725 218.15719508 17.65722847 220.64259529 C17.66632755 224.58208289 17.6561258 228.52109332 17.64060974 232.46055603 C17.60444991 242.25086696 17.59817571 252.04117131 17.60070801 261.83154297 C17.60257421 270.09451401 17.58858619 278.3571265 17.55222893 286.62002373 C17.54143378 290.49034729 17.55352023 294.3601765 17.5660553 298.23048401 C17.557145 300.62314331 17.54706857 303.01579865 17.53564453 305.40844727 C17.55025978 307.00880577 17.55025978 307.00880577 17.56517029 308.64149475 C17.47596674 318.05448592 15.39066044 327.03217766 8.73657227 334.02148438 C0.41650138 341.34697208 -8.23906329 343.00960766 -19.16967773 342.82617188 C-27.45837594 342.15180817 -34.19172177 339.32567303 -40.23999023 333.58789062 C-44.80637614 328.09994385 -48.09108385 321.15715081 -48.082901 313.98078918 C-48.08427567 313.05110825 -48.08565033 312.12142731 -48.08706665 311.16357422 C-48.08167374 309.6368811 -48.08167374 309.6368811 -48.07617188 308.0793457 C-48.0763179 307.00601486 -48.07646393 305.93268402 -48.07661438 304.826828 C-48.07591658 301.27190138 -48.06813035 297.71702687 -48.06030273 294.16210938 C-48.05843808 291.70017017 -48.0570144 289.2382306 -48.05601501 286.77629089 C-48.05219355 280.29077127 -48.04236639 273.80527397 -48.03131104 267.31976318 C-48.02108897 260.70406395 -48.01651569 254.08836111 -48.01147461 247.47265625 C-48.00074382 234.48762067 -47.98386355 221.50260058 -47.96264648 208.51757812 C-48.49201813 208.72911026 -49.02138977 208.9406424 -49.56680298 209.15858459 C-50.62440323 209.57037209 -50.62440323 209.57037209 -51.70336914 209.99047852 C-52.74492661 210.40058922 -52.74492661 210.40058922 -53.80752563 210.81898499 C-57.30633949 211.95314289 -60.6862508 212.00770634 -64.33764648 211.95507812 C-65.45018799 211.94371826 -65.45018799 211.94371826 -66.58520508 211.93212891 C-74.83290782 211.685472 -82.20910622 209.37699622 -88.25315285 203.526371 C-94.86411721 195.75795476 -96.85145394 187.33218662 -96.70727539 177.39355469 C-96.71457672 176.24707458 -96.72187805 175.10059448 -96.72940063 173.91937256 C-96.74548619 170.16502837 -96.71849299 166.41244583 -96.68920898 162.65820312 C-96.68816996 160.02325441 -96.6892124 157.38830413 -96.69223022 154.75335693 C-96.69398875 149.24258881 -96.67200032 143.73231612 -96.63500977 138.22167969 C-96.59276927 131.89360812 -96.58564095 125.56626329 -96.59813368 119.23807931 C-96.60961731 113.10200963 -96.59789602 106.96623095 -96.57578659 100.83019257 C-96.56814671 98.2421342 -96.56575922 95.6540543 -96.56895828 93.06598663 C-96.57242274 76.30003564 -96.35688245 60.28147015 -88.21264648 45.14257812 C-87.86758057 44.48177246 -87.52251465 43.8209668 -87.16699219 43.14013672 C-76.8853211 24.04260373 -59.21795093 11.41757752 -38.96264648 4.51757812 C-25.88823177 0.8242074 -13.53241907 -0.06163932 0 0 Z M-45.96264648 24.51757812 C-46.79924805 24.9584375 -47.63584961 25.39929688 -48.49780273 25.85351562 C-63.5487174 34.2745838 -73.25670464 46.83898719 -78.82337952 63.0194397 C-82.03756068 74.79688748 -81.41582987 86.93112316 -81.39624023 99.04101562 C-81.40080739 101.51673525 -81.40611454 103.99245362 -81.41212463 106.46817017 C-81.42102127 111.63394352 -81.41866889 116.79956194 -81.40869141 121.96533203 C-81.39715956 128.57950699 -81.41749575 135.19315139 -81.44660854 141.8072567 C-81.46495527 146.90995666 -81.46468187 152.01252879 -81.45897102 157.11525345 C-81.45881787 159.55446751 -81.46485696 161.99369026 -81.4772625 164.43287277 C-81.49215485 167.83823854 -81.48151004 171.24261426 -81.46435547 174.64794922 C-81.47402344 175.64964142 -81.48369141 176.65133362 -81.49365234 177.68338013 C-81.42886661 183.83129104 -80.60732757 187.51026325 -76.96264648 192.51757812 C-72.1353248 196.28288904 -68.41511493 197.12017513 -62.32202148 196.83398438 C-57.43586753 196.17872201 -54.35959766 194.18159293 -51.15014648 190.58007812 C-48.30493344 186.59677986 -47.83674234 183.78791277 -47.84239197 178.97442627 C-47.8410173 178.06861313 -47.83964264 177.16279999 -47.83822632 176.22953796 C-47.84182159 175.24339005 -47.84541687 174.25724213 -47.84912109 173.24121094 C-47.84897507 172.19699478 -47.84882904 171.15277863 -47.84867859 170.07691956 C-47.84937535 166.62482629 -47.85715675 163.17278696 -47.86499023 159.72070312 C-47.86685525 157.32745391 -47.86827876 154.93420432 -47.86927795 152.54095459 C-47.87309653 146.24122057 -47.88292122 139.94150959 -47.89398193 133.64178467 C-47.90421021 127.21366691 -47.90877862 120.78554543 -47.91381836 114.35742188 C-47.92454405 101.7441305 -47.94161259 89.13085623 -47.96264648 76.51757812 C-43.01264648 76.51757812 -38.06264648 76.51757812 -32.96264648 76.51757812 C-32.96679455 78.34005113 -32.96679455 78.34005113 -32.97102642 80.19934177 C-33.03601026 109.04531581 -33.08547319 137.89128857 -33.11584247 166.73731888 C-33.11959456 170.28833967 -33.12347753 173.8393603 -33.12744141 177.39038086 C-33.1286218 178.45079015 -33.1286218 178.45079015 -33.12982605 179.53262185 C-33.14287734 190.97690201 -33.16652966 202.42113692 -33.19410487 213.86539025 C-33.22216677 225.60964011 -33.2388244 237.35386628 -33.24491197 249.09814829 C-33.2488255 255.69415534 -33.25803389 262.29005981 -33.27983665 268.88603401 C-33.3001895 275.09362167 -33.30648264 281.3010644 -33.30196953 287.50868225 C-33.30279526 289.78751856 -33.30876794 292.06635969 -33.32026291 294.34516716 C-33.3351879 297.45640963 -33.33159975 300.56710486 -33.32341003 303.67835999 C-33.33651782 305.03100727 -33.33651782 305.03100727 -33.34989041 306.41098076 C-33.30120403 313.25366074 -32.11332448 317.9707226 -27.58764648 323.33007812 C-23.22320114 326.96711591 -19.74843604 327.9403844 -14.01342773 327.76757812 C-7.98193139 327.03231 -3.72475789 324.13960071 0.03735352 319.51757812 C2.61441338 313.86451629 2.3231275 308.21849641 2.30859375 302.13134766 C2.31643387 300.42292694 2.31643387 300.42292694 2.32443237 298.67999268 C2.33465866 296.21154276 2.34045038 293.74307137 2.34231377 291.27460098 C2.34598023 287.36524665 2.36271502 283.45614535 2.3830719 279.54684448 C2.43214691 269.8371055 2.46311319 260.12731912 2.484375 250.41748047 C2.50237028 242.21168767 2.53179906 234.00612563 2.57841682 225.80044174 C2.59005454 223.21136258 2.59599707 220.62225122 2.59609795 218.0331459 C2.59629034 214.40943912 2.61458254 210.78622742 2.63671875 207.16259766 C2.63214157 206.09739899 2.62756439 205.03220032 2.62284851 203.9347229 C2.68867378 197.14468824 3.23367938 191.04992994 7.61547852 185.52929688 C15.36093667 179.39445969 22.16275834 177.39946239 32.03735352 178.51757812 C38.82729714 180.18214879 43.27981954 182.59661549 47.03735352 188.51757812 C50.11857235 195.18962417 50.45924628 200.83935991 50.40625 208.13085938 C50.41189972 209.83971817 50.41189972 209.83971817 50.41766357 211.58309937 C50.42407814 214.04606302 50.42378291 216.50905144 50.41747856 218.97201538 C50.40834634 222.87319422 50.41861685 226.77389473 50.43409729 230.67504883 C50.47016208 240.3614326 50.47652371 250.04780803 50.47399902 259.73425293 C50.47213536 267.92717814 50.48603758 276.11974113 50.5224781 284.31259155 C50.53329312 288.15037821 50.52117952 291.98766879 50.50865173 295.82543945 C50.51755714 298.18506356 50.52763186 300.54468365 50.5390625 302.90429688 C50.529319 303.96635345 50.5195755 305.02841003 50.50953674 306.12265015 C50.56972236 312.35847527 51.27899359 317.38396841 55.03735352 322.51757812 C60.45933089 326.83302951 65.15901708 328.20161158 72.03735352 327.51757812 C77.74277419 325.77694131 80.70953939 323.46175911 84.03735352 318.51757812 C86.06693661 312.89299723 86.32042821 307.8644966 86.28890991 301.97343445 C86.29188005 301.03120854 86.29485019 300.08898263 86.29791033 299.11820441 C86.30552961 295.97091173 86.29906474 292.82380681 86.29272461 289.67651367 C86.29547548 287.41587193 86.29915597 285.15523115 86.30369568 282.89459229 C86.311801 278.03066896 86.3139778 273.16679159 86.3117485 268.30286217 C86.30891341 260.60818609 86.3232749 252.91360169 86.34072876 245.21894836 C86.36391409 234.42762551 86.38303601 223.63631097 86.39575195 212.8449707 C86.39696751 211.81859511 86.39696751 211.81859511 86.39820762 210.77148465 C86.40942493 201.06499926 86.41470963 191.3585196 86.41759475 181.6520286 C86.41779873 180.96868777 86.41800272 180.28534695 86.41821289 179.58129883 C86.41841283 178.89879595 86.41861276 178.21629306 86.41881876 177.51310828 C86.42255695 166.11548431 86.44190788 154.71796835 86.47330725 143.32038337 C86.49350782 135.67521367 86.49589793 128.03031195 86.48502707 120.38512647 C86.48241652 115.62313063 86.49644098 110.86129021 86.51510811 106.09933472 C86.52042203 103.89594401 86.51894705 101.69252453 86.51007271 99.48914528 C86.49890848 96.47328449 86.51243343 93.45847018 86.53182983 90.44267273 C86.52270518 89.57776693 86.51358052 88.71286112 86.50417936 87.82174605 C86.63116788 77.62384212 90.85416775 68.70076389 98.03735352 61.51757812 C108.19452259 53.57903984 119.40772536 52.07699906 131.99359703 52.13745308 C134.1014863 52.14671467 136.20851428 52.13617504 138.31636047 52.12083435 C144.29992692 52.08112777 150.28341329 52.0795341 156.26708984 52.08178711 C159.94987086 52.08183843 163.63217805 52.06257483 167.31482887 52.03245354 C169.37782784 52.02172487 171.43988609 52.03369274 173.50285339 52.04627991 C181.30570781 51.98438971 187.72500281 51.75680853 193.58158875 45.99952698 C197.9423487 40.96996019 198.33279383 37.74830586 198.24829102 31.27539062 C197.84637171 26.0206678 195.92222327 23.3827841 192.22485352 19.76757812 C186.63859037 15.82433355 181.54451793 15.22242495 174.84417725 15.25015259 C174.03504041 15.24562147 173.22590357 15.24109036 172.39224744 15.23642194 C169.68892997 15.22379219 166.98581436 15.22539745 164.2824707 15.22705078 C162.3403701 15.22106422 160.39827187 15.21425837 158.45617676 15.20669556 C153.18275164 15.18903085 147.90939144 15.18433967 142.6359396 15.18306398 C139.3348136 15.18164088 136.03370401 15.17736801 132.73258209 15.17206955 C121.19646664 15.15356021 109.66039738 15.14539914 98.12426758 15.14697266 C87.40555346 15.14817086 76.68704175 15.12713405 65.96837878 15.09548533 C56.7434148 15.06922725 47.51851646 15.0586095 38.29351544 15.05988348 C32.79436714 15.06039077 27.29539831 15.05483832 21.79628754 15.03352737 C16.61202028 15.01398668 11.42810059 15.01412746 6.24382019 15.02856064 C4.3550032 15.03063111 2.46616357 15.02605485 0.57738495 15.01383972 C-15.69520604 14.91553554 -31.43228334 16.56656341 -45.96264648 24.51757812 Z " fill="#000000" transform="translate(95.962646484375,161.482421875)"/>
<path d="M0 0 C14.76508508 12.76178208 24.3048606 28.54472555 26.5625 48.125 C27.68379726 69.70997225 22.65611229 88.47436096 8.5625 105.125 C-4.98519696 119.4446455 -22.68779377 127.81012084 -42.47998047 128.40844727 C-61.886283 128.66384983 -78.57617131 122.6725889 -93.4375 110.125 C-94.09234375 109.58359375 -94.7471875 109.0421875 -95.421875 108.484375 C-107.26426001 97.72844733 -115.28018717 80.39645616 -116.65893555 64.58569336 C-117.57381701 43.61364505 -113.53433022 24.53892572 -99.0625 8.6875 C-72.5084281 -18.9993394 -31.03021545 -23.75449723 0 0 Z M-88.4375 20.125 C-98.65268054 32.55451416 -102.60755268 47.25380153 -101.4375 63.125 C-99.3806794 77.50404582 -92.2894809 90.53100013 -81.4375 100.125 C-71.99301847 107.16090144 -61.30430287 112.22939224 -49.4375 113.125 C-48.48230469 113.20234375 -48.48230469 113.20234375 -47.5078125 113.28125 C-31.94287467 113.96542309 -17.66101291 107.75194548 -6.04296875 97.7265625 C4.87465345 86.82530855 11.43031135 72.57298956 11.8125 57.0625 C11.5168013 41.20229702 5.23519366 26.83886407 -5.77734375 15.52734375 C-17.63109594 4.82241336 -32.10056551 -0.26590266 -47.9375 -0.0859375 C-64.56807415 0.91635157 -77.27129271 8.26194174 -88.4375 20.125 Z " fill="#000000" transform="translate(167.4375,22.875)"/>
</svg>
